<svg width="123" height="123" viewBox="0 0 123 123" fill="none" xmlns="http://www.w3.org/2000/svg">
<rect width="123.001" height="123.001" fill="white"/>
<path fill-rule="evenodd" clip-rule="evenodd" d="M31.3237 47.2258C32.5537 48.1176 46.3913 46.986 47.8858 46.3525C48.2548 46.1926 48.3348 45.3316 48.384 44.8949C48.999 38.9417 47.7689 15.0363 46.625 13.6034C45.9178 12.7239 41.4467 14.6489 37.6459 19.6858C32.8673 26.0388 31.1269 34.2246 30.8317 42.232C30.7126 43.8302 30.8224 45.4372 31.1576 47.0044C31.1858 47.0952 31.2444 47.1734 31.3237 47.2258ZM31.3667 42.2504C31.6435 34.3722 33.3286 26.211 37.9473 19.9134C41.7665 14.7165 45.9424 13.1483 46.4528 13.7633C47.6029 15.1839 48.6177 43.8248 47.6275 45.8851C45.8932 46.5493 33.0703 47.4349 31.6373 46.8076C31.3377 45.3083 31.2467 43.7747 31.3667 42.2504ZM46.625 79.6675C46.6869 79.6185 46.7285 79.5484 46.7419 79.4707C47.0494 77.9639 46.6312 67.8347 45.9362 66.9676C45.9073 66.9287 45.8704 66.8965 45.8279 66.8732C45.7855 66.8498 45.7385 66.8359 45.6902 66.8323C44.0974 66.7339 33.2671 67.7179 31.6742 67.8655C31.0592 67.9208 31.5635 78.3821 32.443 80.3378C32.4868 80.4185 32.5592 80.4799 32.6459 80.51C33.6914 80.9282 45.7886 80.4178 46.625 79.6675ZM32.8304 80.0057C32.1109 78.1607 31.4282 70.1041 31.7726 68.0807C33.3224 67.9823 43.9867 67.2812 45.5488 67.3366C46.0961 68.9479 46.4836 77.7486 46.213 79.3108C46.213 79.2677 46.213 79.2246 46.2622 79.2554C46.5205 79.5875 36.4221 80.3317 33.347 80.1287H32.935C32.8304 80.1287 32.8735 80.1164 32.8304 80.0057ZM47.4983 87.6011C47.4307 87.3797 47.3261 87.1213 47.0924 87.109C45.4934 87.0106 34.6693 87.9885 33.0703 88.1361C32.4553 88.1915 32.9534 98.6527 33.839 100.608C33.8588 100.65 33.8872 100.687 33.9221 100.716C33.9571 100.746 33.9979 100.768 34.042 100.781C35.0813 101.193 47.1785 100.695 48.0211 99.9442C48.0796 99.8924 48.1204 99.8236 48.1379 99.7474C48.4516 98.1976 48.0457 89.4522 47.4983 87.6011ZM47.6582 99.526C47.9042 99.852 37.9042 100.608 34.7431 100.399H34.3864C34.2818 100.399 34.2449 100.362 34.1957 100.233C33.4885 98.2776 32.8243 90.3624 33.1687 88.3637C34.7738 88.2591 45.3766 87.5641 46.9448 87.6256C47.4922 89.237 47.8735 98.0377 47.5967 99.5937C47.6152 99.5445 47.6336 99.5014 47.6582 99.526Z" fill="black"/>
<path fill-rule="evenodd" clip-rule="evenodd" d="M118.562 101.051C118.476 100.547 117.72 100.098 117.234 99.8213C116.077 99.2063 114.306 98.4806 113.009 97.9271C113.248 97.5027 114.362 95.5593 114.331 95.135C114.331 94.8029 113.95 94.483 113.716 94.2678C110.641 91.8078 96.3419 85.9037 94.7797 84.9627C95.241 82.6811 95.6284 80.2087 95.9482 77.718C96.84 77.4166 97.8425 76.9676 98.8019 76.6109C100.192 76.3772 103.002 75.4424 103.802 75.2456C104.952 74.8914 106.05 74.3869 107.068 73.745C109.577 72.2546 111.786 70.3086 113.581 68.007C114.245 67.2013 116.041 66.6171 115.229 64.4584C114.811 63.3329 113.771 62.2567 113.328 61.3834C113.015 60.7684 112.664 60.0734 112.271 59.3784C112.434 59.2507 112.556 59.0773 112.62 58.8802C112.685 58.683 112.69 58.4711 112.633 58.2714C112.412 57.6195 107.098 51.5555 104.638 51.2788C103.972 51.3612 103.327 51.57 102.738 51.8938C102.48 51.1804 102.221 50.5469 102.086 50.2763C101.25 48.6527 100.382 47.0168 99.4415 45.4424C100.192 45.3932 101.723 45.2702 102.344 44.8643C102.787 44.5752 102.719 44.2493 102.529 43.5605C102.916 43.4313 103.205 43.3022 103.365 43.2345C105.413 42.3796 106.022 38.9295 106.243 36.7523C106.44 34.8089 107.43 19.1324 107.473 19.0094C108.088 18.3329 108.962 16.371 109.411 15.6268C109.54 15.37 109.615 15.0896 109.632 14.8027C109.643 14.7002 109.624 14.5967 109.577 14.5049C109.53 14.4131 109.457 14.3371 109.368 14.2861C108.753 13.9909 108.205 14.4091 107.769 14.9011C107.901 14.4631 107.956 14.005 107.929 13.5481C107.873 13.1299 107.59 12.7978 107.209 12.9331C107.008 13.0186 106.823 13.1371 106.662 13.2837C106.485 13.4473 106.334 13.6358 106.213 13.8433C106.213 13.4682 106.213 12.9823 105.899 12.8163C105.796 12.7781 105.685 12.7682 105.576 12.7877C105.468 12.8071 105.367 12.8552 105.284 12.927C105.055 13.1206 104.849 13.3393 104.669 13.5789C104.134 14.1939 103.906 15.4239 103.728 15.8974C103.113 15.6514 102.012 15.2517 101.791 15.8974C101.446 16.9491 103.162 17.2136 103.076 17.7425C102.658 20.3132 100.616 24.2984 99.2385 29.7166C98.3837 33.0807 98.8265 32.7917 98.4021 31.9368C98.1008 31.3218 92.1291 30.6515 91.4402 30.5838C91.4523 30.5578 91.4586 30.5295 91.4586 30.5008C91.4586 30.4721 91.4523 30.4438 91.4402 30.4178C91.0033 30.0906 90.4732 29.9117 89.9273 29.9073C89.3585 29.9336 88.8113 30.1331 88.3591 30.4793C88.2914 30.4793 82.5903 31.0082 79.6567 32.1705C79.6309 32.1789 79.6076 32.1937 79.5891 32.2136C79.3431 32.2136 79.0848 32.2751 78.8326 32.312L78.8818 30.3132C79.8535 29.8458 80.8129 29.2615 81.0343 28.1976C81.226 27.1963 81.3207 26.1789 81.3172 25.1594C82.5472 24.9319 83.1623 23.8064 82.3259 22.2136C82.2497 21.8911 82.0987 21.5911 81.885 21.3378C81.6713 21.0846 81.4009 20.8853 81.0958 20.756C81.3493 20.4675 81.499 20.1027 81.5213 19.7193C81.5436 19.336 81.4371 18.9562 81.2188 18.6404C81.4079 18.3215 81.4642 17.9411 81.3757 17.5811C81.2871 17.221 81.0607 16.9102 80.7453 16.7154C80.585 16.6245 80.4102 16.5621 80.2287 16.5309C80.1856 16.5309 80.0073 16.5739 79.8966 16.5739C79.924 16.2592 79.8485 15.9441 79.6813 15.676C79.57 15.477 79.4124 15.3078 79.2219 15.1825C79.0313 15.0573 78.8134 14.9798 78.5866 14.9565H78.3652C78.3596 14.8764 78.327 14.8005 78.2729 14.7412C78.1399 14.5969 77.9866 14.4726 77.8178 14.3722C77.481 14.1974 77.1011 14.1227 76.7231 14.157C76.6258 14.1683 76.535 14.2115 76.4648 14.28C76.102 13.665 74.7797 13.8003 74.177 14.1754C74.1497 14.1358 74.1188 14.0988 74.0848 14.0647C73.8855 13.9774 73.6667 13.9445 73.4506 13.9694C73.2346 13.9942 73.0289 14.0759 72.8547 14.2062C72.716 14.3143 72.5883 14.4358 72.4734 14.569C72.059 14.4426 71.6118 14.4807 71.2247 14.6754C70.8376 14.8701 70.5403 15.2064 70.3947 15.6145C70.2661 15.5828 70.132 15.5802 70.0022 15.6068C69.8724 15.6334 69.7502 15.6885 69.6444 15.7683C69.4621 15.8795 69.2875 16.0028 69.1216 16.1373C69.0226 16.2357 68.9455 16.354 68.8957 16.4844C68.8459 16.6148 68.8243 16.7544 68.8326 16.8937C68.5036 16.8748 68.1764 16.9533 67.8919 17.1196C67.6074 17.286 67.3784 17.5326 67.2336 17.8286C67.1928 17.9216 67.1719 18.0222 67.1721 18.1238C67.1721 18.5481 67.2274 18.3452 66.9076 18.4743C65.7115 15.6471 64.0964 13.0161 62.1167 10.6699C56.3356 3.98475 50.1056 4.53825 49.5337 4.3722C46.8697 3.63031 44.0702 3.51455 41.3541 4.03395C40.2132 3.73603 39.0547 3.51009 37.8854 3.35744C25.5484 1.71537 15.9358 6.76458 10.2163 19.4214C3.69103 33.8249 4.02314 54.0832 4.92105 64.3785C5.0379 65.7192 8.61109 102.312 8.91244 103.677C8.94934 103.856 9.01084 103.979 9.39215 104.114C11.3663 104.809 20.6345 104.502 22.7747 104.434C23.1683 109.969 23.1376 109.748 23.1806 109.809C24.6568 110.186 26.1714 110.393 27.6948 110.424C27.9592 110.387 52.6272 106.014 63.5989 104.028C63.8633 104.926 65.8437 111.599 66.5017 112.257C66.5692 112.321 66.6554 112.362 66.7477 112.374C67.5769 112.367 68.4024 112.264 69.2077 112.066C69.423 112.773 69.6321 113.536 69.8228 114.292C69.6321 114.44 70.0872 114.403 66.9322 116.433C66.2227 116.856 65.5463 117.333 64.9088 117.859C64.5955 118.214 64.3664 118.634 64.2385 119.089C64.1954 119.241 64.2122 119.404 64.2855 119.543C64.3587 119.683 64.4828 119.789 64.6321 119.84C66.0651 120.32 75.9236 116.888 76.8892 115.91C77.2459 115.541 77.1536 114.68 77.0798 114.12C76.8673 112.813 76.5882 111.518 76.2434 110.24C76.7354 110.092 78.9249 109.434 79.3185 109.096C79.872 108.604 79.1094 105.406 78.931 104.655C77.6087 99.317 74.4169 91.0144 74.0109 88.7081C74.3677 87.9332 77.701 81.98 78.2729 81.0205C78.2729 80.959 78.2299 74.8336 78.2729 73.8619C78.2729 73.456 78.3344 71.8877 78.3406 71.5371C78.3367 71.5209 78.3365 71.5039 78.3401 71.4875C78.3437 71.4712 78.3509 71.4559 78.3613 71.4427C78.3716 71.4296 78.3848 71.4189 78.3999 71.4116C78.415 71.4043 78.4315 71.4005 78.4482 71.4005C78.465 71.4005 78.4815 71.4043 78.4966 71.4116C78.5116 71.4189 78.5248 71.4296 78.5352 71.4427C78.5455 71.4559 78.5528 71.4712 78.5564 71.4875C78.5599 71.5039 78.5598 71.5209 78.5559 71.5371C78.8523 74.4676 78.8996 77.4179 78.6973 80.3563C78.6973 83.6712 78.605 93.1977 80.6223 95.8299C82.6395 98.4622 105.936 107.952 106.926 107.454C107.344 107.244 108.882 104.821 109.196 104.329C110.53 104.708 111.837 105.179 113.107 105.738C113.101 105.766 113.101 105.795 113.107 105.824C113.427 106.617 112.867 110.744 113.021 111.808C113.131 112.274 113.341 112.71 113.636 113.087C113.732 113.212 113.873 113.294 114.028 113.318C114.184 113.342 114.343 113.306 114.472 113.216C115.665 112.367 118.771 102.398 118.562 101.051ZM54.22 98.087C53.4574 96.2051 53.3221 88.7389 53.5681 86.8324C54.0663 86.7586 56.7846 86.365 59.6259 85.9775C59.8781 89.4154 60.9912 94.2986 61.8338 97.6626C60.1056 97.8656 56.4217 98.2776 54.7735 98.2407H54.3984C54.2815 98.2407 54.2877 98.2531 54.22 98.087ZM52.8547 67.0353C54.8842 66.7462 63.3959 65.5224 65.4439 65.3871C65.3455 65.7684 65.2655 66.1435 65.1979 66.4879C65.0809 66.7332 64.9803 66.9859 64.8965 67.2444C64.7797 67.9086 65.5116 67.8594 66.2188 67.8225C66.2188 68.0131 66.2742 68.2099 66.2988 68.4375C64.464 71.4683 62.8207 74.611 61.3787 77.8471C59.6198 78.0624 55.7575 78.4621 54.0355 78.4621H53.5927C52.9531 78.4191 52.5288 69.6614 52.8547 67.0353ZM68.2299 54.8089C68.1669 54.0141 68.058 53.2235 67.9039 52.4412C67.9039 52.3797 67.2336 49.2247 67.2151 49.1632C67.1536 48.8926 66.8277 47.7056 66.6493 47.7364C66.471 47.7671 66.6493 48.9664 66.6924 49.3292C66.8154 49.9873 67.006 50.7622 67.1413 51.3095C66.3295 51.7278 62.578 54.8827 60.4808 55.6146C59.9548 55.8775 59.4075 56.0956 58.8449 56.2665C58.7772 56.2665 58.6112 55.7868 58.5866 55.7192C58.3359 54.6892 58.0132 53.6781 57.621 52.6933C57.0983 51.3526 54.7366 46.4325 55.0872 45.51C55.5792 45.1226 57.4857 44.034 58.0331 43.7204C63.0454 40.8606 62.7686 41.2603 63.1069 40.7929C63.3647 40.2757 63.65 39.7728 63.9617 39.2862C65.6038 37.6256 67.6149 35.6453 69.9335 34.8028C69.054 36.4325 66.76 40.5838 66.637 40.8175C66.6186 40.8518 66.6096 40.8904 66.6108 40.9293C66.6121 40.9683 66.6236 41.0062 66.6442 41.0392C66.6647 41.0723 66.6937 41.0994 66.7281 41.1177C66.7624 41.136 66.801 41.1449 66.84 41.1435C67.0675 41.1435 68.5374 40.9897 68.808 40.959C67.2213 42.6318 66.6555 43.0869 66.7723 43.4498C67.8826 46.0495 69.1371 48.5852 70.53 51.0451C71.1942 53.5974 73.4328 57.1337 72.8117 59.5875C72.3442 61.5336 71.6807 63.4272 70.8314 65.2395C70.6161 65.67 70.5239 66.7524 70.2656 67.0414C69.4067 67.1901 68.5355 67.256 67.6641 67.2382C67.209 67.2382 65.8806 67.3612 65.4501 67.2997C65.5054 67.1214 65.6899 66.8077 65.7268 66.6171C66.4771 62.927 67.2766 62.8717 68.5005 59.237C68.8387 58.1853 68.2668 55.9221 68.2668 54.8212L68.2299 54.8089ZM32.9715 56.7462C32.8608 56.697 32.8547 56.7462 32.9715 56.6847C33.9186 56.3649 35.3639 55.6884 36.0958 56.3649C36.4955 56.7339 35.3332 57.6564 35.0379 58.3329C34.5689 57.5668 33.8327 57.0016 32.9715 56.7462ZM31.9014 56.8139C32.0512 56.8678 32.2132 56.8784 32.3688 56.8446C32.5464 56.8598 32.7218 56.8948 32.8916 56.9492C36.9199 58.7511 33.9555 62.8655 30.9543 62.1275C29.1646 61.697 28.0576 59.5629 29.0232 58.1115C29.3633 57.6798 29.8025 57.3365 30.3036 57.1106C30.8046 56.8847 31.3527 56.7829 31.9014 56.8139ZM36.2864 56.1374C35.284 55.2517 33.4758 56.328 32.4795 56.5925C32.2766 56.5531 32.071 56.5285 31.8645 56.5187C31.4402 56.205 31.3541 55.633 32.0675 55.2333C33.1646 54.6669 34.3139 54.2076 35.4992 53.8618C36.6397 53.6306 37.8226 53.7331 38.9063 54.157C38.9306 54.1677 38.9567 54.1732 38.9832 54.1732C39.0097 54.1732 39.0359 54.1677 39.0601 54.157C48.5927 49.4522 51.8461 47.8594 54.7366 46.5924C55.2655 48.9172 57.2705 52.5949 57.7748 54.5137C51.68 55.8298 38.0146 56.8692 37.6333 57.6503C37.252 58.4313 36.4033 59.3046 35.573 58.9541C34.4906 58.4928 37.1905 56.9615 36.2864 56.1374ZM55.4931 44.6859C55.0086 44.7125 54.5226 44.6753 54.0478 44.5752C54.0478 41.5002 51.0281 15.1102 52.2889 13.8249C52.6333 13.4805 53.6727 13.788 54.1339 13.9663C55.6837 14.5813 57.9162 16.1619 60.1794 19.2369C63.1069 23.2222 65.0995 28.3452 66.3295 33.1484C66.5491 34.1756 66.7093 35.2146 66.8092 36.2603C65.7121 37.095 64.6838 38.0164 63.7342 39.0156C63.3098 39.4338 62.9839 40.5961 62.5657 40.7991C61.0589 41.5617 57.1413 43.665 55.4931 44.6859ZM70.5977 28.9048C70.6684 29.0598 70.783 29.1908 70.9272 29.2815C71.0715 29.3722 71.2391 29.4187 71.4095 29.4153L71.9138 33.8372L70.5977 34.2985C70.5349 32.4404 70.3293 30.5899 69.9827 28.7634C70.1667 28.8764 70.3827 28.926 70.5977 28.9048ZM84.5706 31.1988C83.0516 33.5174 81.1327 38.1422 81.1266 38.5789C81.1266 39.1939 82.7871 38.8188 84.1586 38.8434C83.5067 40.3563 80.9482 45.2517 80.1118 46.8384C80.1118 44.0648 80.0442 43.5974 80.0503 42.5334C80.0503 40.2948 80.364 39.6675 80.5116 37.0906C80.6627 35.5348 80.4631 33.9649 79.9273 32.4965C81.4169 31.8789 82.9761 31.4452 84.5706 31.205V31.1988ZM73.0331 60.7192C75.7801 60.6629 78.5126 60.3062 81.1819 59.6552C81.3228 60.567 81.3968 61.4878 81.4033 62.4104C78.3602 62.1246 75.2908 62.3449 72.3197 63.0623C72.5718 62.3182 72.8117 61.531 73.0331 60.7315V60.7192ZM73.3898 58.1177C73.2388 57.0189 72.941 55.9453 72.5042 54.9258C74.8535 54.7597 77.7194 54.4338 80.0934 54.0894C80.2225 55.0734 80.3886 56.0513 80.5915 57.0353C78.2108 57.5207 75.8072 57.8861 73.3898 58.13V58.1177ZM69.6075 40.633C69.6078 40.598 69.6005 40.5632 69.5863 40.5312C69.5721 40.4992 69.5511 40.4705 69.5249 40.4472C69.4987 40.4239 69.4678 40.4065 69.4344 40.3961C69.4009 40.3857 69.3655 40.3826 69.3307 40.387C69.3307 40.387 67.8978 40.5961 67.1967 40.6699C67.621 39.8212 69.9335 35.3009 70.2717 34.6798C70.8867 34.4522 70.6469 34.5383 71.9691 34.1201C71.1657 36.8786 70.5453 39.6871 70.1118 42.5272C69.7671 44.6892 69.7463 46.8905 70.0503 49.0586C69.4353 47.8286 67.7317 44.6183 67.2889 43.3637C67.8916 42.5272 69.6136 41.0574 69.6075 40.6453V40.633ZM69.1216 40.5715V40.6392C69.1216 40.6392 69.097 40.59 69.1216 40.59V40.5715ZM70.6469 49.1816C73.3098 48.9541 76.7108 48.5051 79.5952 47.9885C79.6077 48.0206 79.6266 48.0499 79.6506 48.0746C79.6506 49.1201 79.7182 50.1533 79.7982 51.1866C77.5042 51.4756 73.7034 51.9123 71.3172 52.066C71.1742 51.6956 71.051 51.3179 70.9482 50.9344C71.0282 50.7376 70.8806 50.6884 70.6469 49.2001V49.1816ZM79.5276 45.2148C73.9925 46.1681 71.5694 46.5678 70.4132 46.697C70.3641 45.5349 70.4094 44.3708 70.5485 43.2161C75.1979 42.7978 74.2385 42.9332 79.5153 42.1828C79.5091 42.2751 79.5153 44.114 79.5276 45.2087V45.2148ZM93.6727 65.1595C93.8203 65.0181 93.7342 64.8213 93.6727 64.5445C94.9888 67.2936 95.5178 70.344 96.0713 70.5408C96.2921 70.5893 96.5208 70.5893 96.7416 70.5408C97.1168 71.574 98.4083 75.0365 98.5866 76.0759C96.9384 76.6909 94.8658 77.7057 93.8511 77.4904C92.9839 75.9344 91.7662 67.7056 91.4833 65.8483C91.5376 65.849 91.591 65.8341 91.6371 65.8053C92.5842 65.3625 92.7133 66.1312 93.685 65.1534L93.6727 65.1595ZM114.478 64.2247C115.561 66.3526 113.863 66.7339 113.119 67.6687C111.366 69.9186 109.21 71.8227 106.76 73.2838C105.786 73.9024 104.736 74.3923 103.636 74.7413C102.959 74.9135 100.592 75.6946 99.1463 76.039C98.6219 74.1462 97.9873 72.2858 97.2459 70.467C98.5478 70.0639 99.8017 69.5194 100.985 68.8434C101.07 69.1521 101.201 69.4465 101.373 69.7167C101.422 69.7901 101.486 69.8529 101.559 69.9016C101.633 69.9504 101.716 69.984 101.803 70.0005C101.89 70.0171 101.979 70.0163 102.066 69.9982C102.152 69.9801 102.234 69.9451 102.307 69.8951C102.657 69.6521 102.978 69.3716 103.267 69.0587C103.556 68.7266 103.544 68.6097 103.015 67.558C104.798 66.328 106.446 64.8828 108.101 63.4682C108.29 63.8537 108.558 64.1952 108.888 64.4707C109.02 64.5505 109.176 64.5819 109.328 64.5594C109.481 64.537 109.621 64.4621 109.724 64.3477C110.008 64.0317 110.255 63.6852 110.462 63.3145C110.659 62.9332 110.616 62.7979 109.897 61.943C110.606 61.2842 111.262 60.5707 111.858 59.8089C112.203 60.424 112.523 61.039 112.806 61.654C113.193 62.3797 114.011 63.2714 114.491 64.2185L114.478 64.2247ZM102.855 68.5297C102.898 68.6466 102.941 68.5974 102.806 68.7388C102.588 68.9592 102.356 69.1646 102.111 69.3539C101.662 69.6614 101.902 69.3539 100.419 66.7216C100.86 66.5365 101.323 66.4084 101.797 66.3403C101.981 66.6417 102.707 68.0685 102.867 68.5236L102.855 68.5297ZM110.001 62.9947C109.83 63.3105 109.634 63.6128 109.417 63.8987C109.103 64.2431 109.085 63.9602 108.076 62.7302C107.314 61.7893 107.381 61.9615 107.461 61.8754C107.743 61.5551 108.068 61.2757 108.427 61.0451C108.642 61.2665 109.792 62.6134 110.013 62.9885L110.001 62.9947ZM104.552 51.7954C106.779 52.0537 111.932 58.0193 112.092 58.4375C112.252 58.8557 111.748 59.0525 111.52 59.3723C110.923 60.138 110.267 60.8557 109.558 61.5187C109.279 61.1935 108.97 60.8949 108.636 60.6269C108.359 60.4793 108.07 60.7684 107.83 61.0328C107.6 61.2986 107.394 61.5847 107.215 61.8877C107.215 61.9738 107.154 61.8877 107.83 62.9947C106.207 64.3908 104.552 65.836 102.799 67.0783C102.601 66.7057 102.373 66.3499 102.117 66.0144C101.889 65.8114 101.434 66.0144 101.041 66.1681C100.759 66.2969 100.486 66.4427 100.223 66.6048C100.124 66.697 100.155 66.6048 100.838 68.3576C100.032 68.825 97.0922 70.3317 96.2865 70.1288C95.8007 69.3908 94.8904 65.7069 93.5436 63.5666C93.3529 62.5027 93.0577 60.9037 92.7318 59.1263C96.2435 55.8176 103.476 51.6601 104.552 51.7954ZM99.9765 53.3944C98.7465 54.157 97.3751 55.0488 96.1328 55.9529C94.4538 49.7536 94.6998 50.0611 92.3997 45.0611C93.4331 45.2709 94.4823 45.3943 95.5362 45.4301C97.2753 47.9298 98.7587 50.598 99.9642 53.3944H99.9765ZM103.525 17.8347C103.691 16.8568 102.049 16.6416 102.24 16.0512C102.357 16.002 102.596 15.9897 103.55 16.3648C103.722 16.4325 103.876 16.5001 104.011 16.3648C104.275 16.1065 104.509 14.5198 105.038 13.9048C105.191 13.6715 105.38 13.4639 105.598 13.2898C105.62 13.994 105.514 14.6963 105.284 15.3624C105.191 15.5394 105.121 15.7274 105.075 15.922C105.069 15.9621 105.071 16.0031 105.082 16.0421C105.093 16.0811 105.113 16.1173 105.139 16.1482C105.165 16.1791 105.198 16.204 105.234 16.2212C105.271 16.2385 105.311 16.2476 105.352 16.248C105.555 16.248 105.616 16.0758 105.678 15.8974C105.739 15.7191 105.745 15.6945 105.782 15.5653C106.076 14.878 106.47 14.2377 106.951 13.665C107.012 13.6158 107.264 13.296 107.301 13.4251H107.234C107.35 13.4866 107.338 13.831 107.326 13.9602C107.208 14.7176 107.001 15.4586 106.711 16.168C106.686 16.2278 106.683 16.294 106.702 16.3559C106.72 16.4177 106.759 16.4714 106.812 16.508C106.865 16.5446 106.929 16.562 106.994 16.5572C107.058 16.5524 107.119 16.5258 107.166 16.4817C107.523 16.125 108.427 14.5567 109.011 14.7597C109.006 14.9603 108.958 15.1574 108.87 15.3378C108.451 16.0327 107.467 18.1668 106.957 18.6773C106.901 18.7571 106.867 18.8505 106.858 18.9479C106.858 19.1324 106.243 28.8495 106.084 30.836C105.801 34.1816 106.231 41.617 103.199 42.9455C103.045 43.0193 102.775 43.1423 102.406 43.2776C101.717 40.8483 99.6813 35.2825 98.7773 32.9823C99.915 26.574 103.009 20.8421 103.525 17.8347ZM97.9901 32.1582C98.4144 33.1115 101.932 42.804 102.098 44.3292C102.055 44.4338 101.68 44.5629 101.563 44.5937C99.3185 45.2517 92.289 44.8889 92.0184 44.3108C91.9923 44.2601 91.9512 44.2186 91.9007 44.1921C91.8502 44.1656 91.7928 44.1554 91.7363 44.1628C91.6797 44.1702 91.6268 44.1949 91.5849 44.2335C91.5429 44.2721 91.5139 44.3227 91.5017 44.3784C91.4897 44.4386 91.4924 44.5007 91.5095 44.5596C91.5267 44.6185 91.5578 44.6724 91.6002 44.7167C94.2139 50.3563 93.8511 49.8458 95.6161 56.3034C94.5702 57.0791 93.5701 57.9148 92.6211 58.8065C91.3911 52.1091 89.546 42.3181 89.4538 41.5863C89.1647 38.5113 89.0971 33.2837 91.0774 30.8975C92.4858 31.0512 96.7478 31.617 98.0147 32.1582H97.9901ZM91.1327 30.5162C88.8142 32.6318 88.7957 38.5112 89.0417 41.6355C89.1586 43.0992 93.0147 63.8188 93.1807 64.8582C92.781 65.2272 92.6641 65.1349 92.3935 65.1103C92.1137 65.0812 91.8311 65.1279 91.5755 65.2456C90.4808 62.8532 86.3541 41.0389 86.7662 37.4227C86.9999 35.387 87.5903 32.4473 88.5374 30.6269C88.9066 30.3344 89.3588 30.1662 89.8294 30.1463C90.3 30.1264 90.7648 30.2559 91.1573 30.5162H91.1327ZM88.1438 30.7868C87.2349 32.8858 86.6402 35.1073 86.3787 37.3796C85.9052 41.0697 88.9372 57.0599 90.1549 62.2136C88.2099 62.8952 86.3272 63.7429 84.5276 64.7475C83.8019 65.1841 82.6026 66.4941 81.9261 66.6478C81.7293 66.4264 81.8707 65.2149 81.8707 65.0242C81.8707 63.622 81.9015 62.3366 81.8031 61.039C81.5448 57.7548 80.284 56.0574 80.0319 48.0562C80.1303 47.9455 84.0479 40.4793 84.6567 38.9049C84.7241 38.7806 84.7396 38.6346 84.6998 38.499C84.6075 38.3144 84.38 38.3206 84.1586 38.3206C83.5436 38.3206 82.0737 38.4867 81.5878 38.4313C82.4358 35.9426 83.5082 33.5363 84.792 31.2419C88.562 30.7499 87.5903 30.8298 88.1684 30.7868H88.1438ZM79.5337 32.4965C80.0811 34.5752 80.3271 35.1779 79.7305 39.649C78.5682 39.9319 77.4058 40.2148 76.1204 40.4178C75.1118 40.5838 71.6001 41.0697 70.8683 41.0328C71.4279 37.3427 71.4833 37.6379 72.1352 34.6244C72.7932 36.5801 74.0847 38.9971 76.145 39.2431C78.2053 39.4891 79.2693 38.0869 79.5214 36.082C79.6198 35.2702 79.0725 33.3575 78.8388 32.5826L79.5337 32.4965ZM80.5669 28.0992C80.3701 28.9725 79.4784 29.4706 78.6666 29.8397C78.5067 29.9135 78.3714 29.9811 78.3652 30.1533C78.2997 30.9531 78.2771 31.7558 78.2975 32.558C78.5128 33.2406 79.0971 35.3132 79.0048 36.0266C78.7957 37.6933 77.9101 38.9049 76.2311 38.7019C74.2816 38.4682 72.9654 35.6822 72.4796 33.7818C72.4796 33.5481 71.9507 29.3169 71.9445 29.2615C72.0733 29.1772 72.1684 29.0504 72.2133 28.9032C72.2583 28.756 72.2502 28.5977 72.1905 28.4559C72.1358 28.3458 72.0925 28.2304 72.0614 28.1115C72.0614 27.9331 71.9261 27.312 71.8646 27.0537C71.8031 26.7954 71.7416 26.7892 71.6555 26.7523C70.4255 26.2603 69.7736 25.264 70.3271 23.954C70.4021 23.8242 70.5114 23.7174 70.643 23.6455C70.7747 23.5736 70.9235 23.5392 71.0733 23.5462C71.2232 23.5532 71.3682 23.6013 71.4926 23.6851C71.6169 23.769 71.7158 23.8854 71.7785 24.0217C71.8885 24.3513 72.055 24.6593 72.2705 24.9319C72.5718 25.2455 72.8855 25.061 73.0146 24.6982C73.1438 24.3353 72.9593 24.0032 73.1253 22.8163C73.2114 22.2013 73.3406 21.6662 73.4513 21.0819C73.4943 20.879 73.3037 20.061 73.4021 19.9934C73.8695 19.6736 74.2078 20.0549 74.6813 20.3624C75.3886 20.8236 76.1696 21.248 76.9876 20.9774C77.8947 20.7775 78.7315 20.3378 79.4107 19.7043C79.6591 20.0249 79.9371 20.3214 80.241 20.5899C80.3394 20.6576 80.3271 20.633 80.3394 20.676C79.1832 20.8974 78.9618 21.7831 79.1893 22.9331C78.8326 23.0069 78.3652 23.2529 78.0946 23.3267C77.9357 22.8943 77.6534 22.518 77.2828 22.2443C76.9683 21.9611 76.5789 21.7745 76.1612 21.7069C75.7434 21.6393 75.3151 21.6935 74.9273 21.863C74.0171 22.1828 73.0823 23.708 73.6973 25.3132C73.7853 25.5852 73.9285 25.8361 74.1178 26.0502C74.3072 26.2643 74.5387 26.4371 74.7978 26.5578C75.057 26.6784 75.3382 26.7443 75.624 26.7513C75.9098 26.7583 76.1939 26.7063 76.4587 26.5986C76.8201 26.4939 77.1567 26.3174 77.4484 26.0796C77.74 25.8419 77.9807 25.5477 78.1561 25.2148C78.3222 24.7562 78.3394 24.2569 78.2053 23.788C78.3099 23.788 78.4821 23.788 78.6358 23.7449C78.7388 24.1672 78.8808 24.579 79.0602 24.9749C79.0971 25.061 79.3308 25.6269 79.2754 25.6884C79.1685 25.8004 79.0488 25.8994 78.9187 25.9836C78.8388 26.0266 78.7588 26.0328 78.7588 26.125C78.7588 26.371 79.3738 26.1619 79.5706 26.0205C79.7674 25.879 79.8289 25.5161 79.7305 25.1902C79.5575 24.6404 79.2912 24.1245 78.9433 23.665L79.2939 23.4805C79.546 24.2308 80.1057 25.0856 80.8867 25.1963C80.8701 26.1718 80.7631 27.1435 80.5669 28.0992ZM77.7502 25.0241C77.252 26.0266 75.4562 26.74 74.5645 25.8421C74.398 25.6643 74.2684 25.4553 74.1832 25.2271C74.0521 24.9116 73.9925 24.571 74.0084 24.2297C74.0243 23.8884 74.1155 23.5549 74.2754 23.2529C74.426 22.8707 74.71 22.556 75.0749 22.3673C75.3997 22.1935 75.7673 22.1163 76.1346 22.1446C76.5018 22.1729 76.8532 22.3057 77.1475 22.5272C77.4636 22.8439 77.6856 23.2422 77.7888 23.6776C77.8919 24.113 77.8722 24.5685 77.7317 24.9934L77.7502 25.0241ZM82.1106 22.3304C82.5288 23.4251 82.3874 24.4337 81.2496 24.6613C80.1118 24.8888 79.0233 21.8261 80.0995 21.3464C81.0528 20.8482 81.6001 21.3341 82.0921 22.2997L82.1106 22.3304ZM79.7982 16.5493C79.7982 16.5493 79.8474 16.5493 79.8597 16.5985C79.872 16.6477 79.7736 16.5493 79.7797 16.5186L79.7982 16.5493ZM74.3185 14.323C74.3185 14.323 74.257 14.323 74.2201 14.28C74.2939 14.2246 74.3677 14.2185 74.3 14.2923L74.3185 14.323ZM9.34295 103.604C9.01699 102.232 5.5053 65.1349 5.4315 64.3293C4.56434 54.1201 4.24454 33.9479 10.7206 19.6797C16.108 7.74859 24.9334 2.73628 36.4094 3.75105C37.3258 3.831 38.1868 3.94785 39.0232 4.09545C19.9088 4.57516 12.9776 23.4251 11.2064 42.5887C10.5467 50.1718 10.5467 57.7978 11.2064 65.3809C11.4586 68.2714 14.8965 102.497 15.1609 104.126C14.3799 104.108 10.0318 104.065 9.34295 103.604ZM15.3823 104.12C14.7243 99.5507 11.9813 69.6798 11.6246 65.3748C10.4561 51.5002 11.2618 33.2099 16.9567 20.6576C21.0096 11.7154 27.7255 5.07331 38.6726 4.66741C20.1609 10.2517 18.9371 38.6527 19.5644 57.9332C19.6566 60.4978 21.8091 91.1436 22.7255 104.059C19.9703 104.102 17.4672 104.139 15.3762 104.12H15.3823ZM27.5595 110.24C27.2028 105.442 24.3553 61.7155 24.263 58.542C23.5927 36.6293 25.5914 6.97983 47.4488 5.03641C56.6432 4.2123 62.7317 10.3255 66.4218 18.8249C66.0151 19.3494 65.8238 20.0092 65.8867 20.6699C65.937 20.8246 66.0284 20.9628 66.1512 21.0696C65.9763 21.2594 65.8516 21.4898 65.7883 21.74C65.787 22.0388 65.8613 22.3331 66.0043 22.5955C66.1473 22.8579 66.3544 23.0798 66.6063 23.2406C66.5632 23.3206 66.5325 23.3821 66.5202 23.4128C66.2065 24.5014 66.5202 24.9257 67.1352 25.2578C67.0373 25.6293 67.0708 26.0232 67.2299 26.3729C67.389 26.7225 67.6641 27.0065 68.0085 27.1767C68.1678 27.2175 68.3304 27.2442 68.4943 27.2566C68.4761 27.4119 68.4761 27.5688 68.4943 27.724C68.5804 28.0807 68.9248 28.1914 69.2877 28.2283C69.7116 30.3008 69.9585 32.4056 70.0257 34.5199C69.0393 34.8581 68.1087 35.341 67.2643 35.9528C67.1602 34.9857 67.0041 34.0249 66.7969 33.0746C65.4931 28.1545 63.5066 23.093 60.4562 19.0647C56.8584 14.3107 52.9654 12.8593 52.1044 13.7203C50.6038 15.2209 53.5743 42.6871 53.5066 44.6736C53.5066 45.1472 54.2508 45.1964 54.7366 45.221C54.5989 45.4723 54.5532 45.7637 54.6075 46.0451C49.3676 48.3452 38.9863 53.7327 38.9248 53.7696C37.7855 53.3563 36.5509 53.2815 35.3701 53.5543C34.1714 53.9242 33.0117 54.4103 31.9076 55.0057C31.1696 55.4424 31.1142 56.0574 31.5017 56.5125C29.4045 56.5125 27.7378 58.0008 28.2421 60.0796C28.384 60.6431 28.6608 61.1637 29.0486 61.5965C29.4364 62.0293 29.9236 62.3614 30.4683 62.5641C31.0129 62.7669 31.5987 62.8342 32.1751 62.7603C32.7515 62.6863 33.3013 62.4734 33.7772 62.1398C34.2732 61.8381 34.6785 61.4079 34.9503 60.8947C35.222 60.3816 35.35 59.8046 35.3209 59.2247C36.3295 59.7905 37.4303 58.868 37.9715 57.8594C38.8264 57.4842 47.2581 56.6294 51.9137 56.0144C54.1954 55.7069 56.3233 55.3993 57.9039 55.0426C58.0036 55.6297 58.2257 56.1892 58.5558 56.6847C58.9433 57.0783 60.1979 56.3034 60.7145 56.1251C62.7871 55.4239 66.2496 52.5703 67.2889 51.9184C67.5007 52.8754 67.6507 53.845 67.7379 54.8212C67.7379 55.8668 68.2914 58.1915 68.0146 59.0279C67.086 61.8077 66.1696 62.8655 65.6161 64.8828C63.4205 65.0304 54.8965 66.4756 52.7748 66.8446C52.7512 66.8473 52.7292 66.8578 52.7125 66.8746C52.6957 66.8914 52.6851 66.9133 52.6825 66.9369C52.3504 68.9172 52.3074 76.9922 53.2053 78.7081C53.3283 78.948 53.8203 78.9418 54.2323 78.9418C55.6099 78.9418 58.5005 78.7204 61.2004 78.4068C60.4632 80.0778 59.9444 81.8369 59.6567 83.6405C59.6026 84.3015 59.6026 84.9659 59.6567 85.6269C56.5078 86.1312 53.5066 86.6479 53.5066 86.6479C53.4849 86.6534 53.4653 86.665 53.45 86.6814C53.4348 86.6977 53.4245 86.7181 53.4205 86.7401C53.0884 88.7266 53.0392 96.7955 53.9371 98.5175C53.9834 98.5959 54.0584 98.6533 54.1462 98.6774C55.0257 98.9726 61.102 98.3084 62.0306 98.2038C62.5103 100.092 63.0269 101.962 63.5251 103.69C52.3873 105.719 28.3467 110.086 27.5595 110.24ZM75.8744 110.369C76.0343 111.144 76.2127 111.974 76.3541 112.755L70.1426 114.206C69.9458 113.462 69.7121 112.718 69.4722 112.023C71.4218 111.611 73.9249 110.953 75.8744 110.369ZM109.275 104.133C110.419 102.331 111.815 100.043 112.861 98.1915C113.734 98.6036 114.78 99.071 115.715 99.5323L113.162 105.387C111.896 104.882 110.598 104.463 109.275 104.133Z" fill="black"/>
<path fill-rule="evenodd" clip-rule="evenodd" d="M76.4602 24.1198C76.4748 24.0634 76.4738 24.0041 76.4573 23.9482C76.4407 23.8924 76.4092 23.8421 76.3661 23.8029C76.3231 23.7637 76.2701 23.7369 76.213 23.7256C76.1559 23.7142 76.0967 23.7187 76.042 23.7385C75.7406 23.8553 75.8759 24.1936 75.8636 24.5257C75.8619 24.5671 75.8687 24.6084 75.8834 24.6471C75.8981 24.6859 75.9205 24.7212 75.9492 24.7511C75.9779 24.781 76.0124 24.8047 76.0505 24.8209C76.0887 24.8372 76.1297 24.8455 76.1711 24.8455C76.2501 24.8441 76.3257 24.8129 76.3827 24.7581C76.4397 24.7034 76.474 24.6292 76.4786 24.5503C76.4786 24.4273 76.4663 24.2551 76.4602 24.1198ZM80.6176 22.8037C80.6124 22.7633 80.5992 22.7243 80.5789 22.689C80.5586 22.6537 80.5315 22.6228 80.4993 22.5979C80.467 22.5731 80.4302 22.5548 80.3909 22.5442C80.3515 22.5336 80.3105 22.5309 80.2701 22.5361C80.2297 22.5414 80.1908 22.5545 80.1555 22.5748C80.1202 22.5951 80.0892 22.6222 80.0644 22.6545C80.0396 22.6867 80.0213 22.7236 80.0107 22.7629C80.0001 22.8022 79.9974 22.8432 80.0026 22.8836C80.0249 23.046 80.0599 23.2064 80.1072 23.3633C80.1162 23.4058 80.1341 23.4459 80.1598 23.481C80.1855 23.516 80.2183 23.5453 80.2561 23.5667C80.2938 23.5882 80.3357 23.6014 80.379 23.6055C80.4223 23.6096 80.4659 23.6045 80.507 23.5904C80.5482 23.5764 80.5859 23.5539 80.6176 23.5242C80.6494 23.4946 80.6746 23.4586 80.6914 23.4185C80.7082 23.3785 80.7164 23.3353 80.7153 23.2919C80.7143 23.2484 80.704 23.2057 80.6853 23.1665C80.6553 23.047 80.6328 22.9259 80.6176 22.8037ZM78.4589 27.7729C78.3974 27.7729 77.8439 27.5577 77.7886 27.6376C77.7332 27.7176 77.8439 28.1788 78.2929 28.3018C78.7418 28.4248 79.0985 28.1419 79.0801 28.0374C79.0616 27.9328 79.0678 27.9513 78.4589 27.7729ZM95.8821 12.5515C96.411 11.5613 98.5758 10.2698 99.2154 10.1899C99.2448 10.1899 99.2729 10.1782 99.2937 10.1574C99.3145 10.1367 99.3261 10.1085 99.3261 10.0792C99.3261 10.0498 99.3145 10.0216 99.2937 10.0009C99.2729 9.98011 99.2448 9.96845 99.2154 9.96845C98.1392 9.7901 95.9805 10.9402 95.6668 12.4777C95.6571 12.5062 95.659 12.5375 95.6723 12.5646C95.6855 12.5917 95.709 12.6124 95.7376 12.6222C95.7661 12.632 95.7974 12.63 95.8245 12.6168C95.8516 12.6035 95.8723 12.58 95.8821 12.5515ZM99.2216 13.4002C98.8501 13.5123 98.5085 13.7064 98.2222 13.9683C97.9358 14.2302 97.712 14.5531 97.5672 14.9131C97.2742 15.6127 97.2013 16.385 97.3581 17.1271C97.3639 17.1513 97.3777 17.1728 97.3972 17.1882C97.4167 17.2036 97.4409 17.2119 97.4657 17.2119C97.4906 17.2119 97.5147 17.2036 97.5342 17.1882C97.5538 17.1728 97.5675 17.1513 97.5734 17.1271C97.6349 16.7212 97.7579 16.2415 97.7825 16.1308C97.8897 15.3905 98.2152 14.6989 98.7173 14.1443C99.2769 13.5293 99.4553 13.5908 99.3753 13.4371C99.359 13.4128 99.3341 13.3955 99.3056 13.3887C99.2772 13.3819 99.2472 13.386 99.2216 13.4002Z" fill="black"/>
</svg>
