<svg width="123" height="123" viewBox="0 0 123 123" fill="none" xmlns="http://www.w3.org/2000/svg">
<rect width="123" height="123" transform="translate(0 0.000732422)" fill="white"/>
<path d="M71.5636 81.8474C71.5668 81.8356 71.5677 81.8234 71.5662 81.8113C71.5647 81.7992 71.5608 81.7875 71.5548 81.7769C71.5488 81.7663 71.5407 81.7569 71.5311 81.7494C71.5215 81.7419 71.5105 81.7364 71.4987 81.7332C71.487 81.7299 71.4747 81.729 71.4626 81.7305C71.4505 81.732 71.4388 81.7359 71.4282 81.7419C71.4176 81.748 71.4083 81.756 71.4008 81.7656C71.3933 81.7752 71.3878 81.7862 71.3845 81.798C71.0503 83.1456 71.1563 84.5648 71.687 85.8478C71.7241 85.9281 71.8475 85.8478 71.829 85.7861C71.414 84.5158 71.3227 83.1619 71.5636 81.8474ZM75.7183 81.6622C75.7986 81.7363 75.9406 81.6622 75.8788 81.5387C75.5495 81.1172 75.1036 80.8018 74.5965 80.6317C74.0895 80.4616 73.5436 80.4442 73.0267 80.5818C72.9526 80.5818 72.9958 80.7362 73.0699 80.7238C73.5536 80.6701 74.0431 80.7266 74.5018 80.8892C74.9605 81.0517 75.3764 81.316 75.7183 81.6622Z" fill="black"/>
<path d="M72.6515 79.9152C72.3831 79.6559 72.0351 79.495 71.6637 79.4584C71.7455 78.1729 72.0074 76.9053 72.4416 75.6926C72.491 75.5938 72.3119 75.5135 72.2625 75.6123C71.7309 76.8158 71.4595 78.118 71.4661 79.4337C71.4661 79.4337 70.5216 79.5016 70.2315 79.8535C70.1148 80.012 70.0579 80.2066 70.0709 80.403C69.2228 79.9786 68.2758 79.7909 67.3299 79.8597C67.3037 79.8597 67.2786 79.8701 67.2601 79.8886C67.2415 79.9071 67.2311 79.9323 67.2311 79.9585C67.2311 79.9847 67.2415 80.0098 67.2601 80.0283C67.2786 80.0468 67.3037 80.0572 67.3299 80.0572C68.2808 80.0754 69.2204 80.2679 70.1018 80.6252C70.1694 80.889 70.3108 81.1281 70.5095 81.3144C70.7082 81.5007 70.9558 81.6265 71.2234 81.6771C71.4911 81.7276 71.7676 81.7008 72.0205 81.5998C72.2734 81.4988 72.4923 81.3277 72.6515 81.1067C72.6515 81.1067 73.1083 80.3783 72.6515 79.9152ZM70.4167 80.0325C70.5463 79.73 70.9846 79.656 71.3118 79.6498C71.7005 79.6337 72.084 79.7441 72.4045 79.9646C72.5465 80.0758 72.7194 80.2239 72.6885 80.403C72.3613 82.2488 69.8487 81.4031 70.4167 80.0325ZM16.9295 81.5883C16.7978 82.5093 16.944 83.4486 17.3493 84.2861C17.3987 84.3602 17.5284 84.2861 17.4975 84.2243C17.1612 83.3868 17.0361 82.4794 17.1333 81.5821C17.1888 81.5821 18.6087 81.4833 18.6026 80.1684C19.3074 79.9762 20.0477 79.953 20.7633 80.1005C20.7833 80.1049 20.8043 80.1015 20.8219 80.091C20.8395 80.0804 20.8524 80.0635 20.858 80.0437C20.8635 80.024 20.8612 80.0028 20.8517 79.9847C20.8421 79.9665 20.8259 79.9527 20.8065 79.9461C20.0784 79.7143 19.2935 79.7338 18.5779 80.0017C18.5223 79.8535 18.0716 79.23 16.8431 79.3843C16.5876 78.8853 16.5218 78.3105 16.6581 77.7666C16.7943 77.2228 17.1233 76.7469 17.5839 76.4272C17.6765 76.3531 17.5839 76.2112 17.4975 76.2729C16.982 76.5912 16.6059 77.0924 16.4445 77.6763C16.2831 78.2602 16.3483 78.8835 16.627 79.4214C15.6516 79.656 15.5652 80.1375 15.5158 80.3042C14.6852 80.2541 13.854 80.3912 13.0835 80.7055C13.0646 80.7169 13.0511 80.7354 13.0459 80.7568C13.0407 80.7782 13.0442 80.8008 13.0557 80.8197C13.0671 80.8385 13.0856 80.852 13.107 80.8572C13.1284 80.8624 13.1511 80.8589 13.1699 80.8475C13.9235 80.6442 14.6985 80.5302 15.4788 80.5079C15.4972 80.6767 15.5502 80.8398 15.6345 80.9871C15.7188 81.1345 15.8326 81.2628 15.9687 81.3642C16.1049 81.4656 16.2605 81.5378 16.4258 81.5764C16.5911 81.6149 16.7626 81.619 16.9295 81.5883ZM15.8677 80.1005C16.485 79.3226 18.4359 79.3782 18.4359 80.2424C18.3741 81.3352 16.8308 81.6068 16.0529 81.1253C15.8946 81.0129 15.7844 80.8451 15.7444 80.6551C15.7044 80.4652 15.7374 80.2671 15.8368 80.1005H15.8677ZM51.7172 27.1566C51.7154 27.1405 51.7101 27.1249 51.7016 27.111C51.6932 27.0971 51.6818 27.0853 51.6683 27.0763C51.6548 27.0673 51.6395 27.0613 51.6234 27.0589C51.6073 27.0564 51.5909 27.0575 51.5753 27.0621C51.5598 27.0667 51.5454 27.0747 51.5332 27.0854C51.521 27.0962 51.5113 27.1094 51.5048 27.1243C51.4983 27.1392 51.4952 27.1554 51.4956 27.1716C51.496 27.1878 51.5 27.2038 51.5073 27.2183C51.5443 27.3295 51.7418 27.8789 51.7604 27.9159C51.7748 27.9336 51.7947 27.946 51.8168 27.9514C51.839 27.9568 51.8623 27.9548 51.8833 27.9457C51.9042 27.9366 51.9216 27.921 51.9328 27.9011C51.9441 27.8813 51.9486 27.8583 51.9456 27.8357C51.9394 27.7986 51.7604 27.2677 51.7172 27.1566ZM48.7539 28.1752C48.7482 28.1525 48.7351 28.1323 48.7167 28.1178C48.6982 28.1034 48.6755 28.0955 48.652 28.0955C48.6286 28.0955 48.6058 28.1034 48.5874 28.1178C48.5689 28.1323 48.5558 28.1525 48.5502 28.1752C48.5223 28.319 48.5238 28.467 48.5545 28.6102C48.5853 28.7535 48.6447 28.889 48.7292 29.0086C48.742 29.0171 48.7568 29.0222 48.7721 29.0235C48.7874 29.0248 48.8028 29.0222 48.8168 29.0161C48.8309 29.01 48.8433 29.0005 48.8527 28.9884C48.8622 28.9763 48.8686 28.962 48.8712 28.9469C48.7914 28.6975 48.7518 28.437 48.7539 28.1752ZM30.6841 51.6345C32.32 51.795 33.956 51.974 35.592 52.1345C35.6723 52.1345 35.7155 52.0543 35.7031 51.9926C34.3326 45.5289 34.6413 44.5844 34.3511 44.5844C32.5838 44.7455 30.8023 44.6394 29.0666 44.2695C29.0495 44.2642 29.0312 44.2637 29.0138 44.2681C28.9963 44.2724 28.9804 44.2814 28.9677 44.2941C28.955 44.3068 28.946 44.3227 28.9417 44.3401C28.9374 44.3575 28.9379 44.3758 28.9431 44.393C29.6408 46.6957 30.5606 51.5974 30.6841 51.6345ZM29.1901 44.4918C30.8559 44.838 32.563 44.9419 34.2585 44.8004C34.561 47.1711 34.9685 49.5232 35.45 51.8691L30.7149 51.369C30.3615 49.045 29.8521 46.7474 29.1901 44.4918ZM40.5431 49.1651C40.6481 49.1651 40.6172 48.9984 40.5431 48.9922C39.9875 48.9922 37.7342 48.9367 37.1662 48.8564C37.0613 48.8564 37.0119 49.0046 37.123 49.0231C38.2569 49.1678 39.4011 49.2153 40.5431 49.1651ZM36.7403 47.0352C36.6291 47.0352 36.6353 47.1958 36.7403 47.2081C38.0714 47.3056 39.4067 47.3324 40.7407 47.2884C40.8456 47.2884 40.8086 47.1217 40.7407 47.1155C40.3888 47.0846 37.4008 47.0846 36.7403 47.0352ZM36.5983 45.5104C37.8593 45.6706 39.1301 45.7407 40.4011 45.7203C40.4224 45.7148 40.4412 45.7025 40.4547 45.6852C40.4681 45.6678 40.4754 45.6465 40.4754 45.6246C40.4754 45.6027 40.4681 45.5814 40.4547 45.564C40.4412 45.5467 40.4224 45.5343 40.4011 45.5289C39.7838 45.5289 36.9316 45.3561 36.623 45.3499C36.6124 45.3483 36.6017 45.3487 36.5913 45.3513C36.581 45.3538 36.5712 45.3583 36.5626 45.3647C36.554 45.371 36.5467 45.3789 36.5412 45.388C36.5357 45.3971 36.532 45.4072 36.5304 45.4178C36.5287 45.4283 36.5292 45.4391 36.5318 45.4494C36.5343 45.4598 36.5388 45.4696 36.5451 45.4781C36.5515 45.4867 36.5594 45.494 36.5685 45.4996C36.5776 45.5051 36.5877 45.5088 36.5983 45.5104ZM42.389 49.7392C44.0677 49.8155 45.7499 49.737 47.4142 49.5046C47.446 49.5019 47.4759 49.488 47.4984 49.4654C47.521 49.4428 47.5349 49.413 47.5377 49.3812C47.3834 45.4116 47.8402 44.8807 47.4574 44.9363C45.7782 45.1831 44.0733 45.2018 42.389 44.9918C42.3458 44.9918 42.2162 45.0536 42.2162 45.0968C42.1729 46.6031 42.2162 48.1033 42.2594 49.6096C42.2594 49.644 42.273 49.6769 42.2973 49.7013C42.3217 49.7256 42.3546 49.7392 42.389 49.7392ZM47.3587 45.2017C47.2599 46.5555 47.2352 47.9136 47.2846 49.27C45.7027 49.4747 44.1064 49.5469 42.5125 49.4861C42.4693 48.0724 42.3952 46.6587 42.3705 45.2449C44.0322 45.3479 45.699 45.3334 47.3587 45.2017ZM37.7095 52.3691C39.0985 52.4556 45.3214 52.4123 45.9943 52.3197C46.0808 52.3197 46.0561 52.1716 45.9943 52.1716C45.3091 52.1407 39.1109 52.2457 37.728 52.2333C37.6231 52.2518 37.6231 52.363 37.7095 52.3691ZM45.4325 54.5607C45.4538 54.5607 45.4742 54.5523 45.4893 54.5372C45.5043 54.5222 45.5128 54.5018 45.5128 54.4805C45.5128 54.4592 45.5043 54.4388 45.4893 54.4237C45.4742 54.4087 45.4538 54.4002 45.4325 54.4002C41.5865 54.4002 31.7397 53.931 30.6656 53.8384C30.5791 53.8384 30.5791 53.9619 30.6656 53.9742C34.4931 54.3632 44.3522 54.5978 45.4325 54.5607ZM43.7101 57.5919C43.8213 57.5919 43.8521 57.4129 43.741 57.3944C39.6602 56.888 35.555 56.6015 31.4434 56.5362C31.4221 56.5362 31.4017 56.5447 31.3867 56.5597C31.3716 56.5748 31.3632 56.5952 31.3632 56.6165C31.3632 56.6378 31.3716 56.6582 31.3867 56.6732C31.4017 56.6883 31.4221 56.6968 31.4434 56.6968C34.6351 56.8202 36.3266 56.8943 43.7101 57.5919ZM42.3952 60.2033C42.4148 60.2033 42.4337 60.1955 42.4476 60.1816C42.4615 60.1677 42.4693 60.1489 42.4693 60.1292C42.4693 60.1096 42.4615 60.0907 42.4476 60.0768C42.4337 60.0629 42.4148 60.0551 42.3952 60.0551C41.7038 59.981 32.462 59.7773 31.6718 59.7711C31.5854 59.7711 31.5854 59.907 31.6718 59.907C34.4561 60.0243 41.6235 60.2774 42.3952 60.2033ZM40.4876 63.4012C40.6172 63.4012 40.611 63.216 40.4876 63.1974C39.1047 63.0184 33.5301 62.5801 32.141 62.543C32.0669 62.543 32.0484 62.6665 32.141 62.6727C33.493 62.8641 39.08 63.3641 40.4876 63.4012ZM40.0554 66.1175C40.0737 66.1125 40.0898 66.1016 40.1013 66.0866C40.1128 66.0715 40.119 66.0531 40.119 66.0342C40.119 66.0152 40.1128 65.9968 40.1013 65.9818C40.0898 65.9667 40.0737 65.9558 40.0554 65.9508C39.5245 65.7965 33.5424 65.2594 33.2646 65.2903C33.2515 65.2903 33.2389 65.2955 33.2297 65.3047C33.2204 65.314 33.2152 65.3265 33.2152 65.3396C33.2152 65.3527 33.2204 65.3653 33.2297 65.3746C33.2389 65.3838 33.2515 65.389 33.2646 65.389C33.5177 65.4755 39.4875 66.1607 40.0554 66.1175ZM41.0926 68.7227C40.8024 68.6363 34.8141 68.1054 33.5424 68.0251C33.4621 68.0251 33.4683 68.1424 33.5424 68.1486C34.7771 68.3029 40.7407 68.9326 41.0679 68.9079C41.0924 68.9112 41.1173 68.9046 41.137 68.8895C41.1567 68.8745 41.1696 68.8522 41.1728 68.8277C41.1761 68.8031 41.1695 68.7782 41.1544 68.7586C41.1394 68.7389 41.1171 68.726 41.0926 68.7227ZM42.1668 62.043C42.3026 64.3519 42.4075 66.6731 42.5927 68.982C42.5804 68.9979 42.5726 69.0169 42.5702 69.0369C42.5678 69.0569 42.5709 69.0772 42.5791 69.0956C42.5873 69.114 42.6004 69.1298 42.617 69.1413C42.6335 69.1529 42.6529 69.1597 42.673 69.161C44.204 69.2988 45.7416 69.3503 47.2784 69.3154C47.2935 69.3162 47.3086 69.314 47.3228 69.3088C47.337 69.3035 47.35 69.2955 47.361 69.2851C47.372 69.2747 47.3807 69.2621 47.3867 69.2482C47.3927 69.2343 47.3957 69.2194 47.3957 69.2042L47.0438 62.2405C47.0422 62.2089 47.0285 62.179 47.0056 62.1572C46.9826 62.1354 46.9521 62.1232 46.9204 62.1232L42.2841 61.9257C42.2684 61.9248 42.2528 61.9272 42.2381 61.9328C42.2235 61.9384 42.2102 61.947 42.1991 61.9581C42.1881 61.9691 42.1794 61.9824 42.1739 61.9971C42.1683 62.0117 42.1659 62.0274 42.1668 62.043ZM46.8092 62.3517C46.9265 64.5988 47.0377 66.846 47.1549 69.0931C45.682 69.1239 44.2085 69.0745 42.7409 68.945C42.6668 66.6855 42.5125 64.426 42.4075 62.1541L46.8092 62.3517ZM17.5778 54.3879C16.2815 54.4482 14.9988 54.6786 13.7625 55.0731C13.4724 55.1657 12.4723 55.3509 12.3982 55.7399C12.3241 56.1288 12.8118 56.1164 13.0711 56.0979C14.6135 55.9908 16.1339 55.673 17.5901 55.1534C17.732 55.1134 17.8629 55.0416 17.9729 54.9435C18.0275 54.8927 18.0643 54.8255 18.0777 54.7521C18.091 54.6786 18.0802 54.6028 18.0469 54.536C17.9543 54.394 17.7506 54.3817 17.5778 54.3879Z" fill="black"/>
<path d="M114.334 35.4662C112.772 31.3917 103.259 5.43219 102.358 3.01835C102.3 2.94073 102.217 2.88604 102.123 2.86401C100.351 2.86401 89.4921 3.11713 88.4982 3.19121C88.3747 3.19121 79.0466 33.5092 78.5033 35.4724C78.5033 35.5341 78.6021 37.0466 78.6453 37.1763C78.6885 37.3059 78.8243 37.2812 78.8428 37.1763C78.8614 37.0713 78.7626 35.7934 78.7564 35.7317C79.17 35.7749 79.5898 35.8119 79.9911 35.8428C79.8757 36.4817 79.9202 37.1391 80.1208 37.7566C80.1314 37.7759 80.1482 37.791 80.1685 37.7997C80.1888 37.8083 80.2113 37.8099 80.2326 37.8042C80.2539 37.7985 80.2727 37.7859 80.286 37.7683C80.2993 37.7508 80.3063 37.7292 80.306 37.7072C80.1544 37.1023 80.1084 36.4757 80.1701 35.8551C80.8307 35.9169 81.4974 35.9663 82.1642 36.0157C82.0813 36.7488 82.1722 37.4911 82.4296 38.1826C82.4399 38.2005 82.4559 38.2145 82.4751 38.2223C82.4943 38.23 82.5155 38.2312 82.5354 38.2255C82.5553 38.2198 82.5727 38.2076 82.5849 38.1909C82.597 38.1742 82.6032 38.1538 82.6025 38.1332C82.4206 37.4468 82.3395 36.7377 82.3617 36.028C83.0532 36.0774 83.7508 36.1206 84.4484 36.1576V38.1023C84.4559 38.1241 84.4701 38.143 84.4889 38.1563C84.5077 38.1697 84.5302 38.1769 84.5533 38.1769C84.5764 38.1769 84.5989 38.1697 84.6177 38.1563C84.6365 38.143 84.6507 38.1241 84.6583 38.1023V36.17L86.6153 36.2688C86.6153 36.5713 86.6153 38.022 86.6585 38.1208C86.6655 38.1397 86.6781 38.156 86.6947 38.1675C86.7112 38.1791 86.7309 38.1852 86.7511 38.1852C86.7712 38.1852 86.7909 38.1791 86.8075 38.1675C86.824 38.156 86.8367 38.1397 86.8437 38.1208C86.8598 37.503 86.8434 36.8848 86.7943 36.2688C87.566 36.2996 88.3315 36.3305 89.1032 36.349C89.1164 36.9687 89.1659 37.5871 89.2513 38.2011C89.2513 38.306 89.4304 38.2752 89.4365 38.2011C89.4301 37.5819 89.3889 36.9636 89.3131 36.349C90.1342 36.349 90.9552 36.3861 91.7825 36.3922C91.7825 36.3922 91.7084 37.8554 91.7269 38.1332C91.7269 38.2319 91.8936 38.269 91.9059 38.1332C91.9492 37.8554 91.9986 36.3861 91.9862 36.3675H94.0111V37.9356C94.0181 37.9545 94.0308 37.9708 94.0473 37.9823C94.0639 37.9938 94.0835 38 94.1037 38C94.1239 38 94.1435 37.9938 94.1601 37.9823C94.1767 37.9708 94.1893 37.9545 94.1963 37.9356C94.224 37.4133 94.224 36.8899 94.1963 36.3675H94.4371C94.3506 40.7507 94.1531 48.8257 94.1531 49.585C93.8753 49.585 77.8119 49.5418 76.5833 49.585C75.0585 45.8315 72.5274 41.862 69.1752 39.7074C66.0799 37.7991 62.5077 36.806 58.8716 36.8429C58.8716 36.8429 57.853 33.929 57.748 33.5339C58.0322 32.5119 58.2081 31.4628 58.2728 30.404C58.4673 28.3996 58.5518 26.3861 58.5259 24.3725C58.5259 22.5204 58.5691 20.9709 56.6738 20.1374C56.6084 20.0216 56.574 19.8908 56.574 19.7578C56.574 19.6247 56.6084 19.4939 56.6738 19.3781C56.2012 19.3991 55.7419 19.5416 55.3404 19.7917C55.2467 19.347 55.0189 18.9416 54.6878 18.6304C54.3566 18.3191 53.938 18.1168 53.4883 18.0508C53.6541 18.1509 53.7872 18.2969 53.8716 18.4711C53.9559 18.6453 53.9879 18.8403 53.9637 19.0324C50.5127 16.9334 49.6422 21.1067 47.9445 20.8844C47.5359 20.7764 47.1858 20.5127 46.9691 20.1498C46.8092 20.4146 46.7299 20.7203 46.7409 21.0294C46.7519 21.3386 46.8526 21.6379 47.0308 21.8907C46.8522 21.8419 46.6852 21.7576 46.5399 21.6428C46.3946 21.528 46.274 21.385 46.1852 21.2225C46.0964 21.0599 46.0414 20.8812 46.0233 20.6968C46.0053 20.5125 46.0246 20.3265 46.0801 20.1498C45.6225 20.3668 45.2443 20.7217 44.9985 21.1645C44.7528 21.6074 44.6517 22.116 44.7096 22.6192C44.7762 23.014 44.935 23.3875 45.1731 23.7093C45.4113 24.0311 45.722 24.2922 46.0801 24.4712C45.6422 24.5638 45.1858 24.5073 44.7837 24.3107C45.1954 24.9926 45.8202 25.5198 46.5617 25.8109C46.6335 27.4631 46.9626 29.094 47.5371 30.6447C47.2371 31.5951 47.1819 32.6059 47.3766 33.5833C47.7964 36.8738 50.8831 38.1455 53.9698 37.0837C53.7414 37.6084 53.1364 37.6455 52.6117 37.7628C51.8676 37.9254 51.1338 38.1315 50.4139 38.3801C48.9861 38.9552 47.6376 39.7103 46.4011 40.6273C34.4616 40.9421 28.4425 40.5717 26.7262 40.4421C28.0041 39.5592 29.3994 38.0838 28.9302 36.596C28.685 35.875 28.3059 35.2069 27.8128 34.6266C25.6953 32.0399 22.2011 31.6942 19.3489 30.5336C19.0402 30.404 16.0399 28.9161 15.7066 27.6382C15.6497 27.4569 15.6501 27.2625 15.7075 27.0814C15.7649 26.9003 15.8767 26.7412 16.0276 26.6258C16.1202 26.5702 16.0955 26.3912 15.972 26.4035C15.3199 26.4654 14.6999 26.716 14.1879 27.1246C13.6759 27.5332 13.294 28.0822 13.089 28.7044C12.884 29.3266 12.8648 29.995 13.0336 30.628C13.2025 31.2609 13.5521 31.8309 14.0397 32.2684C15.0028 33.1944 16.2807 33.6512 17.4043 34.3303C18.5278 35.0094 19.6514 36.0095 19.5959 37.417C19.5403 38.8246 18.3179 39.9976 17.0771 40.584C15.7189 41.2014 14.2126 41.4422 12.8235 42.0039C10.2554 43.0473 9.54541 45.0907 9.92817 46.4118C10.1318 47.0048 10.5474 47.5017 11.095 47.807C12.3297 48.554 14.12 48.4244 15.0583 49.6591C15.2942 49.9331 15.4255 50.2819 15.4289 50.6434C15.4323 51.005 15.3076 51.3561 15.0769 51.6346C14.6324 52.1902 12.8112 53.2953 12.6075 53.4866C12.5396 53.5669 12.6507 53.6842 12.7248 53.6039C13.5856 53.1929 14.5148 52.9439 15.4658 52.8693C16.9721 52.6162 21.1454 51.0975 21.8615 49.8196C22.0019 49.6023 22.0508 49.3383 21.9976 49.0852C21.9445 48.832 21.7935 48.6101 21.5775 48.4676C21.2936 48.2639 20.2009 48.375 19.6761 47.591C18.6513 46.0723 19.9848 44.356 21.2133 43.4424C22.2743 42.7292 23.4059 42.1272 24.5902 41.6459C25.9237 45.35 28.5289 54.3694 28.7141 55.0794C28.2573 55.1411 24.7445 55.6474 24.2507 55.6968C23.7568 55.7461 21.8307 55.2523 21.5035 55.4745C20.7814 55.1278 19.963 55.0363 19.1822 55.2152C19.0271 54.6541 18.8205 54.1085 18.5649 53.5854C14.6015 53.5854 12.2124 54.8695 11.2061 55.6474C11.169 55.6474 11.2061 55.7832 11.2061 55.8017C11.558 57.1537 13.2557 63.2099 13.4964 63.8828C13.4964 63.9198 17.6759 65.3027 20.9046 62.3209C20.9046 62.3209 20.7565 61.3887 20.7318 60.9566C21.2755 60.905 21.7844 60.6663 22.1717 60.2812C22.5591 59.8962 22.8007 59.3886 22.8555 58.8452C25.2584 59.0878 27.6359 59.5381 29.9611 60.1911C30.3007 61.6789 31.5107 68.0561 31.8132 69.7414C31.2068 69.7427 30.6119 69.9069 30.0908 70.2168C30.0229 70.26 14.8114 70.9761 13.4224 71.6861C12.217 72.2159 11.2268 73.1386 10.6134 74.3036C10.0855 75.5123 9.89352 76.8411 10.0578 78.1497C10.3912 81.2365 12.2124 83.8911 13.6817 86.5519C14.8484 88.6755 14.6015 92.5587 14.6632 93.4353C13.2804 92.7007 9.83557 93.1205 9.81705 93.1328C9.7276 93.2144 9.67316 93.3274 9.6651 93.4482C9.65705 93.569 9.69601 93.6883 9.77383 93.781C11.2547 95.6784 12.9916 97.3613 14.9349 98.7815C15.0275 101.405 14.9904 108.4 14.9349 109.276C14.9349 109.684 14.7435 111.24 14.7805 111.61C14.801 111.905 14.8955 112.189 15.0552 112.437C15.2149 112.685 15.4347 112.889 15.6942 113.03C16.5647 113.462 16.5523 113.314 34.3628 112.95C34.3628 113.252 34.3999 113.567 34.4122 113.845H35.8753V116.209C35.8321 116.172 35.4556 115.993 35.3136 116.049C34.5571 116.348 33.8297 116.716 33.1405 117.148C31.1094 118.382 30.844 119.42 30.844 119.438C30.8293 119.554 30.8593 119.672 30.9281 119.767C30.9968 119.862 31.0992 119.928 31.2144 119.95C33.0664 120.309 39.3202 120.062 39.9375 119.95C40.2956 119.876 40.3326 119.543 40.3141 119.185C40.3084 119.083 40.268 118.985 40.1996 118.909C40.1311 118.833 40.0387 118.782 39.9375 118.765C40.2956 118.006 39.7955 117.08 39.3202 116.401C38.8448 115.722 39.0424 114.147 39.0485 114.012C39.6288 114.055 40.2091 114.098 40.7956 114.154C40.8267 113.694 40.8969 113.237 41.0055 112.789C44.7252 112.725 48.437 112.422 52.1178 111.882C52.1178 111.882 52.5746 109.412 52.7351 108.178C53.6859 108.178 61.1928 108.178 63.9956 108.128C64.0759 108.844 64.5759 113.067 64.6129 113.067C67.3108 114.209 70.7864 114.475 73.6941 114.388C73.8114 114.388 79.775 114.024 83.3865 113.413C85.0969 113.155 86.8242 113.028 88.5537 113.03C87.6401 113.61 84.2323 115.598 83.5038 116.086C83.4794 116.122 83.4664 116.165 83.4664 116.209C83.4664 116.253 83.4794 116.296 83.5038 116.333C86.8499 118.222 92.3443 118.043 96.5669 118.043C98.3264 118.043 100.734 118.16 103.562 116.925C104.179 116.66 105.531 115.999 105.259 115.376C105.216 115.302 99.0425 111.937 97.8881 111.24C97.3201 106.696 96.925 102.251 97.8448 96.8616C98.1103 95.3059 99.3388 90.4597 102.537 83.8973C104.284 80.3351 103.876 76.2668 102.098 73.674C101.792 73.2029 101.411 72.7857 100.969 72.4393C100.323 72.1196 99.6279 71.9109 98.9129 71.8219C100.067 66.8831 100.981 61.4443 100.895 56.3882C100.96 54.8603 100.628 53.3417 99.9315 51.9803C99.2154 50.7456 97.8757 49.7146 96.3941 49.8319C96.4311 46.0846 96.4805 37.3738 96.4805 36.3614H96.8015V38.0714C96.8088 38.0918 96.8222 38.1094 96.8399 38.1218C96.8576 38.1342 96.8787 38.1409 96.9003 38.1409C96.9219 38.1409 96.943 38.1342 96.9607 38.1218C96.9784 38.1094 96.9918 38.0918 96.9991 38.0714C97.0299 37.9233 97.0361 36.6207 96.9991 36.3552H98.74C98.7459 36.8774 98.781 37.3988 98.8449 37.9171C98.85 37.9354 98.8608 37.9515 98.8759 37.9629C98.891 37.9744 98.9094 37.9806 98.9283 37.9806C98.9472 37.9806 98.9656 37.9744 98.9807 37.9629C98.9958 37.9515 99.0066 37.9354 99.0116 37.9171C99.0031 37.4021 98.9577 36.8884 98.8758 36.3799L100.728 36.3243C100.659 36.8844 100.76 37.4522 101.018 37.9541C101.061 38.0097 101.172 38.0035 101.166 37.9171C101.003 37.4025 100.93 36.8637 100.95 36.3243L103.358 36.2009C103.358 36.2009 103.315 37.5343 103.358 37.664C103.365 37.6858 103.38 37.7047 103.398 37.718C103.417 37.7314 103.44 37.7386 103.463 37.7386C103.486 37.7386 103.508 37.7314 103.527 37.718C103.546 37.7047 103.56 37.6858 103.568 37.664V36.1947L105.364 36.1206C105.203 36.7221 105.253 37.3605 105.506 37.9294C105.556 38.0344 105.716 37.9294 105.685 37.8554C105.503 37.2916 105.461 36.692 105.562 36.1083L107.778 35.9971C107.747 36.5482 107.747 37.1006 107.778 37.6516C107.783 37.6699 107.794 37.686 107.809 37.6975C107.824 37.709 107.842 37.7152 107.861 37.7152C107.88 37.7152 107.899 37.709 107.914 37.6975C107.929 37.686 107.94 37.6699 107.945 37.6516C107.976 37.0965 107.976 36.54 107.945 35.9848L109.84 35.886C109.84 36.1268 109.84 37.2812 109.902 37.4047C109.907 37.423 109.918 37.4391 109.933 37.4505C109.948 37.462 109.966 37.4682 109.985 37.4682C110.004 37.4682 110.022 37.462 110.037 37.4505C110.052 37.4391 110.063 37.423 110.068 37.4047C110.075 36.8937 110.057 36.3828 110.013 35.8737L111.97 35.7564C111.97 35.991 112.075 36.9911 112.13 37.2195C112.136 37.2407 112.148 37.2596 112.165 37.273C112.183 37.2865 112.204 37.2938 112.226 37.2938C112.248 37.2938 112.269 37.2865 112.287 37.273C112.304 37.2596 112.316 37.2407 112.322 37.2195C112.322 36.9664 112.186 35.9848 112.149 35.7749L114.106 35.6514C113.892 36.0735 113.844 36.5599 113.97 37.0158C113.97 37.0775 114.143 37.0652 114.124 37.0158C114.048 36.4898 114.121 35.953 114.334 35.4662ZM84.6583 35.9786C82.6828 35.8737 80.7134 35.7317 78.7441 35.565C78.8181 35.4415 88.6217 3.25912 88.6217 3.32085H91.2083C90.4428 7.56821 85.2015 33.608 84.6583 35.9786ZM84.9793 35.9786C85.8868 31.756 91.4059 3.25912 91.3997 3.25912H94.3383C94.1593 5.43219 92.9678 33.7932 92.8628 36.2009C90.7453 36.2009 85.5102 36.0218 84.9793 35.9971V35.9786ZM94.2395 49.869V51.3753C93.6153 52.5157 93.0607 53.6929 92.5788 54.9004C90.8256 59.1169 89.9304 65.6916 90.9429 71.8034C73.4966 71.8589 74.8486 71.8466 74.8548 71.8034C74.9042 71.186 74.7622 67.9511 74.756 67.9388C75.5977 67.1292 76.2656 66.1566 76.7192 65.0805C78.2008 61.5492 77.2563 57.6723 76.3302 54.0731C76.8241 53.8509 77.3118 53.6101 77.7872 53.3446C77.8613 53.3014 77.8613 53.1101 77.8489 53.0668C77.5538 52.0201 77.2035 50.9898 76.7994 49.9801C79.0219 49.9184 94.221 49.9122 94.2395 49.8875V49.869ZM94.2951 51.7889L93.9617 71.7972H91.2701C90.5331 67.6767 90.6191 63.451 91.5232 59.3638C92.2085 56.0178 92.8628 54.6473 94.2951 51.8074V51.7889ZM63.3042 99.4668C58.3654 99.4668 45.2961 99.3372 43.6663 99.3186C44.2836 95.559 45.4443 86.558 45.3393 85.737C46.574 85.737 52.8586 85.6629 54.7724 85.6691C57.8103 86.0124 60.8789 85.9813 63.9092 85.5764C63.3165 88.4471 62.8165 90.9103 63.3042 99.4853V99.4668ZM51.2535 68.4512C51.0066 67.2165 50.2411 63.0617 50.167 62.2777C50.4436 62.2564 50.7214 62.2974 50.98 62.3979C51.2386 62.4983 51.4713 62.6556 51.661 62.858C52.34 63.3519 59.5198 67.6486 60.2298 68.0314C61.6779 68.8142 63.2079 69.4353 64.792 69.8834C68.5887 70.9453 71.6384 70.7909 74.5523 68.1302C74.5523 68.3462 74.6325 71.7417 74.7128 71.8343H72.8607C71.7312 71.9182 70.6356 72.2581 69.6569 72.8282C68.6783 73.3983 67.8422 74.1836 67.212 75.1247C64.9031 73.6863 56.9269 70.0625 51.2535 68.4512ZM51.6918 72.2294H51.0745C51.0374 72.0935 49.5558 65.9262 49.2965 64.5248C49.1545 63.7902 49.0496 63.0494 48.8952 62.3147C49.2468 62.3362 49.5993 62.3362 49.9509 62.3147C50.2102 65.0249 51.5005 71.6244 51.6918 72.2294ZM71.2556 69.8526C68.4405 70.8527 64.5882 69.7847 61.8596 68.587C60.4644 67.9697 59.242 67.0621 57.9024 66.3398C54.1983 64.3582 51.2473 62.3024 50.9448 62.1789C49.9571 61.7776 49.0249 62.7963 46.5184 61.0306C46.4567 60.9874 46.3271 60.9072 46.3456 60.8207C46.3641 60.7343 46.5925 60.7528 46.679 60.7652C47.0737 60.8275 47.458 60.9438 47.8211 61.1109C47.926 61.1541 48.0248 60.9998 47.9137 60.9504C47.2794 60.6418 46.6723 60.2804 46.0987 59.87C46.0061 59.728 46.0987 59.5984 46.253 59.6107C46.3085 59.6107 47.6297 60.2281 47.9692 60.3639C48.0742 60.4133 48.1606 60.2651 48.0618 60.2096C47.3913 59.904 46.738 59.5618 46.1048 59.1848C45.8332 58.9193 45.9567 58.6353 46.1727 58.6353C46.2221 58.6724 47.4074 59.1477 47.9445 59.3268C48.0989 59.3823 48.1606 59.1416 48.0124 59.086C47.6235 58.944 46.5184 58.5551 46.3765 58.4686C46.2345 58.3822 46.1295 58.1847 46.3765 58.1229C46.6234 58.0612 48.2285 58.2155 48.6606 58.2464C48.6805 58.2473 48.7003 58.2434 48.7183 58.2351C48.7364 58.2267 48.7521 58.2141 48.7642 58.1983C48.7764 58.1826 48.7845 58.1641 48.788 58.1446C48.7914 58.125 48.7901 58.1048 48.7841 58.0859C48.6733 57.8668 48.6365 57.6177 48.6792 57.3759C48.7533 57.1537 48.8644 57.3019 48.9632 57.4377C49.173 57.7155 50.1238 59.1971 50.9757 59.4194C54.2353 60.2775 57.6739 60.3639 60.7607 60.722C61.5262 60.8084 63.724 61.1912 64.0573 61.2838C64.2857 61.3517 65.0204 61.5801 65.008 61.3393C64.9525 60.5676 64.4277 57.4624 64.3475 56.666C65.8291 56.5919 74.7807 55.209 76.1265 54.1966C76.9229 57.2401 77.7254 60.4442 76.9846 63.5865C76.637 65.03 75.9292 66.3618 74.9274 67.4576C73.9255 68.5534 72.6623 69.3773 71.2556 69.8526ZM52.3154 31.7004C52.019 32.4474 51.0807 32.2128 50.8275 32.0646C50.8063 32.0515 50.791 32.0305 50.7853 32.0062C50.7795 31.9819 50.7836 31.9563 50.7967 31.935C50.8098 31.9137 50.8308 31.8985 50.8551 31.8927C50.8794 31.8869 50.905 31.891 50.9263 31.9041C51.1054 32.0029 51.8832 32.1449 52.161 31.6016C52.2228 31.5275 52.34 31.6387 52.3154 31.7004ZM51.735 29.5397C51.6788 29.6992 51.5851 29.8429 51.4618 29.9587C51.3385 30.0744 51.1891 30.1589 51.0264 30.2048C50.8636 30.2508 50.6921 30.257 50.5265 30.2229C50.3608 30.1888 50.2057 30.1154 50.0744 30.0089C50.2314 29.1073 50.1893 28.1823 49.9509 27.2987C49.9509 27.1876 49.7657 27.237 49.7842 27.3481C49.9198 28.1845 49.9633 29.0333 49.9139 29.8792C49.5246 29.9406 49.1633 30.1196 48.8786 30.3921C48.5939 30.6647 48.3994 31.0178 48.3211 31.4041C48.3211 31.4041 47.5 30.5706 47.1173 28.5149C46.9568 27.6382 46.7777 26.7616 46.7037 25.8726C48.6113 26.49 51.2659 25.6751 53.6612 23.6934C53.9614 24.1454 54.3603 24.5232 54.828 24.7984C55.142 24.6463 55.5035 24.6245 55.8335 24.738C56.1635 24.8514 56.4353 25.0908 56.5894 25.4039C56.7435 25.717 56.7674 26.0784 56.656 26.4091C56.5446 26.7398 56.3069 27.013 55.9948 27.169C56.1244 28.0827 56.0812 29.8422 54.9823 30.1138C54.1118 30.3299 53.4883 29.7743 51.735 29.5397ZM54.2044 36.9479C55.6927 36.3572 56.9225 35.2566 57.6739 33.8426C57.7604 34.1574 58.7111 36.9972 58.8037 37.1578C58.6571 37.7321 58.3748 38.2628 57.9806 38.7054C57.5863 39.148 57.0916 39.4895 56.538 39.7012C53.3155 41.152 52.0252 39.1827 52.9512 37.9603C52.9574 37.9541 54.0686 37.7874 54.223 36.9787L54.2044 36.9479ZM52.6487 37.9727C52.0314 38.695 52.4635 40.1025 53.8834 40.405C55.3033 40.7075 58.5938 39.5963 59.0445 37.1516C59.0445 37.096 65.7736 37.7195 68.5455 39.621C75.1634 44.1029 77.1883 51.968 77.5341 53.1348C73.5645 55.7214 63.8042 56.382 62.7177 56.4499C62.1054 53.654 61.9284 50.7804 62.1929 47.9305C62.1929 47.8564 62.088 47.8626 62.0818 47.9305C61.7361 50.827 61.878 53.7609 62.5016 56.6104C62.5092 56.6361 62.5246 56.6587 62.5456 56.6753C62.5666 56.6919 62.5922 56.7016 62.6189 56.703C63.1128 56.703 63.6128 56.703 64.1067 56.666C64.1499 57.4315 64.6623 60.4627 64.7241 61.222C63.4934 60.8834 62.2386 60.6399 60.9706 60.4935C52.1795 59.5614 50.5497 59.512 49.6669 58.0982C49.7287 55.7955 50.3398 50.2394 53.3031 40.4421C53.3077 40.4237 53.3081 40.4045 53.3045 40.3859C53.3008 40.3673 53.2931 40.3497 53.2819 40.3344C53.2708 40.3191 53.2564 40.3064 53.2397 40.2973C53.2231 40.2882 53.2047 40.2828 53.1858 40.2815C51.0127 40.4174 48.8376 40.5326 46.6604 40.6273C46.9321 40.5223 50.0435 38.4665 52.6672 38.0035L52.6487 37.9727ZM53.0562 40.5223C49.7719 51.6346 49.5126 56.6845 49.5373 57.8575C49.4941 57.7957 49.1607 56.9129 48.7286 56.9685C48.9261 52.9557 49.6978 49.3072 51.5807 41.7632C51.5807 41.6891 51.5437 41.5903 51.4572 41.6027C43.1626 42.4078 34.809 42.3975 26.5163 41.5718C26.3761 41.3263 26.2503 41.0727 26.1398 40.8125C26.22 40.7631 26.3003 40.7199 26.3805 40.6643C29.7698 40.9791 39.7708 41.2631 53.0562 40.5223ZM26.22 41.5718L25.0656 41.4113C25.2446 41.3249 25.8187 41.0224 25.9299 40.9606C26.0225 41.1397 26.1151 41.3742 26.22 41.5718ZM22.1332 42.5163C20.8429 43.2386 19.423 44.3252 19.102 45.8562C19.0238 46.2152 19.0252 46.587 19.1063 46.9454C19.1874 47.3038 19.346 47.6401 19.5712 47.9305C20.1885 48.7269 20.8059 48.2453 21.4232 48.7207C22.0406 49.1961 21.6455 49.7825 21.2504 50.1468C19.8546 51.0999 18.314 51.8212 16.6881 52.2828C15.5646 52.6162 14.441 52.789 13.41 53.1286C14.2928 52.5483 15.3979 52.1161 15.6325 51.0111C15.683 50.7109 15.6587 50.4029 15.5618 50.1143C15.4649 49.8257 15.2983 49.5654 15.0769 49.3566C14.5575 48.8733 13.9179 48.5386 13.2248 48.3873C11.9469 47.9984 10.2122 47.5848 10.0578 45.9797C10.0383 45.2996 10.211 44.6277 10.5561 44.0413C10.9012 43.4549 11.4046 42.9777 12.0086 42.6645C14.3854 41.294 17.8796 41.5286 19.3798 38.8678C19.6981 38.3451 19.8411 37.7343 19.7878 37.1246C19.7345 36.5148 19.4877 35.9381 19.0835 35.4786C17.3796 33.3672 13.7681 33.1635 13.2001 30.4101C13.0314 29.6008 13.189 28.7577 13.6388 28.064C14.0885 27.3703 14.7939 26.8823 15.6016 26.706C15.4774 26.9187 15.4119 27.1605 15.4119 27.4067C15.4119 27.653 15.4774 27.8948 15.6016 28.1074C16.0052 28.7466 16.5475 29.2867 17.1882 29.6878C20.7812 32.1881 26.1644 31.5831 28.3622 35.9848C29.0289 37.3183 28.7758 37.664 28.0103 38.8616C26.9732 40.5532 23.979 41.4854 22.1332 42.5163ZM20.633 60.7714C20.619 60.7718 20.6052 60.7754 20.5928 60.7819C20.5804 60.7884 20.5696 60.7977 20.5613 60.809C20.5529 60.8203 20.5473 60.8333 20.5447 60.8471C20.5422 60.8609 20.5428 60.8751 20.5466 60.8887C20.67 61.3208 20.6515 61.79 20.7626 62.2283C19.7817 63.0255 18.6254 63.5784 17.3889 63.8413C16.1525 64.1043 14.8713 64.0698 13.6508 63.7408L11.453 55.7153C13.595 54.4096 16.0697 53.7534 18.5772 53.8262C18.673 54.3746 18.8347 54.9094 19.0588 55.4189C19.7964 55.2483 20.5682 55.302 21.275 55.5733C20.9646 55.8524 20.6908 56.1698 20.4601 56.5178C20.1268 56.4623 19.744 56.2647 19.4045 56.4005C19.0649 56.5363 19.0896 56.9129 19.2316 57.2031C19.6384 58.0536 19.9032 58.9649 20.0157 59.9009C20.0157 60.0244 20.2256 60.0244 20.2132 59.9009C20.2162 59.8495 20.2162 59.798 20.2132 59.7466C20.6376 59.8071 21.0701 59.7756 21.4813 59.6541C21.8925 59.5327 22.2727 59.3242 22.5962 59.0428C22.5068 59.5077 22.2655 59.9298 21.9101 60.2427C21.5548 60.5556 21.1055 60.7416 20.633 60.7714ZM22.5715 58.765C21.8986 59.7527 20.4972 59.6231 20.2132 59.5984C20.0664 58.7432 19.8026 57.9123 19.4292 57.129C19.3304 56.9561 19.244 56.703 19.4724 56.5981C19.7008 56.4931 20.0897 56.6722 20.3799 56.6598C20.2996 56.808 20.1885 57.0302 20.2873 57.1846C20.5219 57.5488 21.3676 57.0055 21.6825 56.703C21.7297 56.702 21.7765 56.7127 21.8185 56.7342C21.8606 56.7558 21.8966 56.7875 21.9233 56.8265C22.2258 57.2833 21.4664 57.6908 21.1577 57.7957C21.143 57.7957 21.1289 57.8016 21.1185 57.812C21.108 57.8224 21.1022 57.8366 21.1022 57.8513C21.1022 57.866 21.108 57.8802 21.1185 57.8906C21.1289 57.901 21.143 57.9069 21.1577 57.9069C21.3462 57.873 21.5257 57.8007 21.685 57.6945C21.8443 57.5883 21.98 57.4504 22.0838 57.2895C22.1441 57.3249 22.1966 57.3722 22.2381 57.4285C22.2797 57.4847 22.3095 57.5488 22.3256 57.6169C22.3417 57.6849 22.344 57.7555 22.3321 57.8245C22.3203 57.8934 22.2946 57.9592 22.2566 58.018C22.1286 58.176 21.9693 58.3058 21.7886 58.3993C21.608 58.4928 21.4101 58.5479 21.2071 58.5612C21.1207 58.5612 21.1578 58.7094 21.2442 58.6971C21.4749 58.687 21.7005 58.6265 21.9053 58.5198C22.1101 58.4132 22.289 58.263 22.4295 58.0797C22.4876 58.1122 22.5378 58.1572 22.5765 58.2114C22.6151 58.2656 22.6413 58.3277 22.6531 58.3932C22.6649 58.4587 22.6621 58.526 22.6447 58.5903C22.6274 58.6546 22.5961 58.7142 22.553 58.765H22.5715ZM22.8308 58.6292C22.8308 58.6292 22.9604 58.0982 22.5344 57.9377C22.5854 57.7697 22.57 57.5885 22.4912 57.4315C22.4158 57.3047 22.3039 57.2036 22.1702 57.1413C22.1843 57.0589 22.1794 56.9744 22.1558 56.8941C22.1323 56.8139 22.0908 56.7401 22.0344 56.6783C21.8368 56.4623 21.7813 56.6351 21.9109 56.4437C21.9788 56.3511 21.8307 56.24 21.7566 56.3203C21.518 56.5459 21.2621 56.7523 20.9911 56.9376C20.8985 56.9932 20.4601 57.2278 20.4601 57.0179C20.6142 56.6323 20.8288 56.2738 21.096 55.956C21.2521 55.7925 21.4581 55.6856 21.6817 55.6521C21.9052 55.6186 22.1335 55.6603 22.3307 55.7708C22.6819 55.8937 23.0514 55.9563 23.4234 55.956C24.2568 55.956 28.3313 55.3387 28.7758 55.2584C29.1874 56.8265 29.5702 58.4007 29.9241 59.9811C27.5844 59.3806 25.2091 58.929 22.8122 58.6292H22.8308ZM24.8927 41.5656C28.2202 42.0842 37.6039 43.2572 51.3152 41.8928C48.6606 51.5173 48.5063 57.1105 48.5125 57.129C48.4431 57.259 48.4028 57.4025 48.3943 57.5495C48.3857 57.6966 48.4092 57.8438 48.4631 57.9809C47.9754 57.9439 46.2036 57.6229 45.9937 58.0797C45.9571 58.1479 45.9417 58.2254 45.9494 58.3024C45.9571 58.3794 45.9876 58.4523 46.0369 58.5119C45.6912 58.5798 45.7715 58.9934 45.8949 59.1786C45.964 59.2774 46.0521 59.3614 46.1542 59.4255C46.0904 59.4244 46.028 59.4444 45.9766 59.4823C45.9253 59.5203 45.8879 59.5741 45.8702 59.6354C45.7406 60.0244 46.3579 60.333 46.8271 60.6047C46.8271 60.6047 46.2098 60.4997 46.1604 60.7528C46.111 61.0059 46.3765 61.1665 46.537 61.2776C47.2114 61.7274 47.9563 62.0612 48.7409 62.2653C49.2433 65.6185 49.9588 68.9363 50.8831 72.1985C48.105 72.0874 33.2393 71.896 32.1342 70.4205C31.8873 68.7413 30.6032 58.4563 24.8742 41.5656H24.8927ZM31.7453 86.3481C32.3626 86.2926 32.98 86.2494 33.5541 86.2061C33.5541 86.3296 33.6776 97.9852 33.6899 99.2569C25.9792 99.1952 26.9732 99.2569 25.5594 99.2569C25.5224 95.6022 25.4915 92.2747 25.4792 91.5092C27.7118 89.9714 29.8082 88.2447 31.7453 86.3481ZM29.5722 70.5934C29.0598 71.0564 24.831 76.8718 23.6765 78.7733C22.1517 71.7478 17.0339 71.4145 16.8857 71.3651C20.5713 71.2416 29.0228 70.6304 29.5537 70.5934H29.5722ZM14.2311 87.0643C13.4162 85.169 11.9901 83.1194 11.0641 80.8537C10.1195 78.4584 9.82939 75.2976 11.6814 73.248C13.2804 71.4638 16.3486 70.9576 19.0032 72.5689C21.3738 74.0073 22.7073 76.5385 23.4419 79.1437C23.2382 79.4832 16.7375 89.0953 16.2004 89.8732C16.2004 89.9041 17.324 91.0153 17.6327 91.3054C17.3425 91.7314 16.1264 93.4662 15.7806 93.9045C15.5091 93.7585 15.2263 93.6346 14.9349 93.5341C14.9349 93.5341 15.0213 88.8854 14.2311 87.0643ZM15.8856 94.0218C16.219 93.5835 17.4845 91.8734 17.7685 91.4474C18.5402 92.1759 19.3057 92.9044 20.0589 93.6514C19.4831 94.1568 18.9579 94.7171 18.4908 95.3244C17.8426 96.343 18.2933 97.6148 16.898 98.5902C16.7993 98.5037 16.0152 97.7753 15.7806 97.5221C15.7172 97.4537 15.6747 97.3684 15.6583 97.2764C15.6419 97.1845 15.6522 97.0898 15.688 97.0036C15.8239 96.7011 16.4906 95.2133 15.8856 94.0218ZM16.1264 112.925C15.8094 112.834 15.5304 112.643 15.3312 112.381C15.132 112.118 15.0232 111.798 15.0213 111.468C14.9657 110.27 15.5399 110.165 15.1942 98.9729C15.7127 99.3433 16.2251 99.6767 16.719 99.973C16.8018 100.027 16.8999 100.054 16.9988 100.048C17.0977 100.043 17.1922 100.005 17.2684 99.9422C17.3645 99.8593 17.4533 99.7685 17.5339 99.6705C17.5711 99.6186 17.5975 99.5598 17.6114 99.4975C17.6253 99.4351 17.6266 99.3707 17.6151 99.3079C17.6035 99.245 17.5795 99.1852 17.5443 99.1319C17.5092 99.0786 17.4636 99.0329 17.4104 98.9976L17.0092 98.6828C18.3982 97.7876 18.0401 96.4727 18.6081 95.5219C19.0741 94.889 19.6129 94.313 20.2132 93.8057L20.9046 94.5095C20.9046 94.5095 22.7999 93.3365 25.2261 91.645C25.2693 93.639 25.4854 112.018 25.5718 112.894C23.9235 112.925 16.7375 113.104 16.1264 112.925ZM25.5409 99.3433C28.9055 99.4051 29.7759 99.4298 33.6714 99.4606C33.7085 102.905 33.7517 105.288 33.9677 108.165C33.9677 108.165 28.4116 108.332 25.6397 108.492C25.6088 106.338 25.5718 102.708 25.5718 99.3433H25.5409ZM25.7261 112.894C25.7261 112.129 25.6582 109.314 25.6459 108.678C28.4239 108.546 31.2041 108.447 33.9863 108.381C33.9863 108.715 34.2888 111.622 34.3628 112.74L25.7261 112.894ZM39.7029 118.784C39.0469 118.817 38.3896 118.817 37.7336 118.784C37.6439 118.773 37.5593 118.736 37.4902 118.678C37.4211 118.62 37.3705 118.543 37.3446 118.456C37.1061 117.657 36.6459 116.942 36.0173 116.395C36.0606 115.722 36.0852 114.061 36.0852 113.925C37.003 113.95 37.9229 113.993 38.8448 114.055C38.8083 114.766 38.8559 115.479 38.9868 116.178C39.2646 116.962 40.1968 117.864 39.7029 118.784ZM39.5671 79.4153C37.0051 79.4153 34.0665 82.0452 33.5603 85.953L31.9614 86.0765C32.5743 85.4442 33.1319 84.7605 33.6282 84.0331C34.4678 81.0142 37.3632 78.8844 39.8017 78.8412C41.0732 78.8809 42.284 79.3938 43.1971 80.2796C44.0301 81.0855 44.6915 82.0514 45.1418 83.1194C46.7777 84.0207 49.8274 84.8048 53.2167 85.4036C52.1178 85.4036 46.8333 85.453 45.3023 85.4838C44.7467 81.9464 42.018 79.4647 39.5671 79.4153ZM52.0129 111.69C48.5927 112.209 41.271 112.567 41.0611 112.573C41.3759 111.153 41.6784 109.709 41.9933 108.252C45.5286 108.227 49.064 108.213 52.5993 108.208C52.4018 109.381 52.2104 110.548 52.0129 111.715V111.69ZM42.0427 107.986C42.5983 105.276 43.6293 99.5409 43.6354 99.5038L63.3165 99.7076C63.4462 102.43 63.7054 105.153 64.0079 107.863C60.2792 107.962 44.3577 108.011 42.0427 108.036V107.986ZM64.9216 112.925C64.366 108.104 63.8783 103.776 63.6869 98.9112C63.3597 90.7745 64.1252 88.015 64.1808 85.8419C64.2981 80.8475 66.6502 73.569 71.4223 72.3343C72.246 72.0792 73.116 72.0094 73.9698 72.13C74.8237 72.2506 75.6403 72.5586 76.3611 73.0319C76.8894 73.4835 77.349 74.0096 77.7254 74.5938C78.5245 75.8124 79.0441 77.1927 79.2469 78.6357C79.4497 80.0787 79.3307 81.5488 78.8984 82.9404C78.0958 85.5456 76.0401 88.3792 74.9103 91.324C72.762 96.948 72.9719 109.888 73.9967 114.166C70.9265 114.284 67.8585 113.883 64.9216 112.981V112.925ZM74.2498 114.129C73.4966 110.98 73.5213 107.029 73.5522 103.739C73.5105 100.133 73.8896 96.5339 74.6819 93.0155C75.8734 88.2496 79.5837 84.9529 79.6207 80.0882C79.6528 77.8861 78.9513 75.7359 77.6267 73.9765C76.9929 73.0436 76.0473 72.3673 74.9597 72.0688H93.9617C93.9185 74.816 93.5728 109.789 93.5728 109.795L89.0229 112.802C84.0224 112.869 79.2256 113.987 74.2498 114.184V114.129ZM101.543 73.427C103.327 75.6803 104.043 79.1745 102.413 83.4713C101.049 87.0951 95.0606 95.4355 97.7831 111.141C97.7399 111.141 96.2274 110.153 95.4989 109.746C95.4989 109.746 96.1163 75.3161 96.178 72.0874C100.154 71.8466 101.203 73.0566 101.543 73.4826V73.427ZM99.6907 51.9124C100.427 53.2494 100.775 54.7652 100.697 56.2894C100.777 61.4257 99.8636 66.7843 98.703 71.791C98.2091 71.7355 96.5175 71.7108 96.1718 71.7293C96.1718 70.3341 96.4249 50.9925 96.4373 49.9863C97.1039 50.014 97.7525 50.2103 98.3226 50.5569C98.8926 50.9035 99.3655 51.389 99.6969 51.968L99.6907 51.9124ZM95.1841 109.746C95.1532 110.023 104.747 115.413 105.062 115.549C104.346 116.685 100.74 117.617 99.3388 117.753C98.4745 117.839 90.5972 117.753 88.8871 117.598C87.0917 117.452 85.3372 116.983 83.7076 116.215C84.3681 115.882 93.795 109.986 93.8012 109.746C93.9062 105.196 94.6346 39.1148 94.6593 36.3552H96.3447C96.3076 41.8311 95.2582 109.246 95.1902 109.801L95.1841 109.746ZM93.1036 36.2009C93.2456 31.9226 94.4926 3.22825 94.4679 3.2159L97.0299 3.16651C97.3077 5.27785 101.351 36.0589 101.351 36.0774C100.987 36.0959 94.3692 36.2009 93.1036 36.2009ZM101.58 36.065C101.58 36.065 97.6164 5.56183 97.1843 3.17269L99.8759 3.1233C100.407 5.25933 108.13 33.3425 108.76 35.7255C108.766 35.7255 103.975 35.9971 101.58 36.0774V36.065ZM109.025 35.707C109.025 35.707 100.382 4.27157 100.036 3.10478L102.16 3.06774C103.629 7.4324 113.167 33.1882 114.013 35.3736C112.355 35.5135 110.692 35.6288 109.025 35.7193V35.707Z" fill="black"/>
</svg>
